G04 #@! TF.FileFunction,Legend,Top*
%FSLAX46Y46*%
G04 Gerber Fmt 4.6, Leading zero omitted, Abs format (unit mm)*
G04 Created by KiCad (PCBNEW 4.0.4-stable) date 11/28/16 12:13:09*
%MOMM*%
%LPD*%
G01*
G04 APERTURE LIST*
%ADD10C,0.150000*%
%ADD11C,0.300000*%
%ADD12C,0.200000*%
G04 APERTURE END LIST*
D10*
D11*
X168378930Y-116942071D02*
X168378930Y-115942071D01*
X168378930Y-116227786D02*
X168450358Y-116084929D01*
X168521787Y-116013500D01*
X168664644Y-115942071D01*
X168807501Y-115942071D01*
X169878929Y-116870643D02*
X169736072Y-116942071D01*
X169450358Y-116942071D01*
X169307501Y-116870643D01*
X169236072Y-116727786D01*
X169236072Y-116156357D01*
X169307501Y-116013500D01*
X169450358Y-115942071D01*
X169736072Y-115942071D01*
X169878929Y-116013500D01*
X169950358Y-116156357D01*
X169950358Y-116299214D01*
X169236072Y-116442071D01*
X170450358Y-115942071D02*
X170807501Y-116942071D01*
X171164643Y-115942071D01*
X171736072Y-116942071D02*
X171736072Y-115442071D01*
X172307500Y-115442071D01*
X172450358Y-115513500D01*
X172521786Y-115584929D01*
X172593215Y-115727786D01*
X172593215Y-115942071D01*
X172521786Y-116084929D01*
X172450358Y-116156357D01*
X172307500Y-116227786D01*
X171736072Y-116227786D01*
X173164643Y-115584929D02*
X173236072Y-115513500D01*
X173378929Y-115442071D01*
X173736072Y-115442071D01*
X173878929Y-115513500D01*
X173950358Y-115584929D01*
X174021786Y-115727786D01*
X174021786Y-115870643D01*
X173950358Y-116084929D01*
X173093215Y-116942071D01*
X174021786Y-116942071D01*
X164450358Y-118134929D02*
X164521787Y-118063500D01*
X164664644Y-117992071D01*
X165021787Y-117992071D01*
X165164644Y-118063500D01*
X165236073Y-118134929D01*
X165307501Y-118277786D01*
X165307501Y-118420643D01*
X165236073Y-118634929D01*
X164378930Y-119492071D01*
X165307501Y-119492071D01*
X166164644Y-118634929D02*
X166021786Y-118563500D01*
X165950358Y-118492071D01*
X165878929Y-118349214D01*
X165878929Y-118277786D01*
X165950358Y-118134929D01*
X166021786Y-118063500D01*
X166164644Y-117992071D01*
X166450358Y-117992071D01*
X166593215Y-118063500D01*
X166664644Y-118134929D01*
X166736072Y-118277786D01*
X166736072Y-118349214D01*
X166664644Y-118492071D01*
X166593215Y-118563500D01*
X166450358Y-118634929D01*
X166164644Y-118634929D01*
X166021786Y-118706357D01*
X165950358Y-118777786D01*
X165878929Y-118920643D01*
X165878929Y-119206357D01*
X165950358Y-119349214D01*
X166021786Y-119420643D01*
X166164644Y-119492071D01*
X166450358Y-119492071D01*
X166593215Y-119420643D01*
X166664644Y-119349214D01*
X166736072Y-119206357D01*
X166736072Y-118920643D01*
X166664644Y-118777786D01*
X166593215Y-118706357D01*
X166450358Y-118634929D01*
X167378929Y-119492071D02*
X167378929Y-117992071D01*
X168236072Y-119492071D01*
X168236072Y-117992071D01*
X169236072Y-117992071D02*
X169521786Y-117992071D01*
X169664644Y-118063500D01*
X169807501Y-118206357D01*
X169878929Y-118492071D01*
X169878929Y-118992071D01*
X169807501Y-119277786D01*
X169664644Y-119420643D01*
X169521786Y-119492071D01*
X169236072Y-119492071D01*
X169093215Y-119420643D01*
X168950358Y-119277786D01*
X168878929Y-118992071D01*
X168878929Y-118492071D01*
X168950358Y-118206357D01*
X169093215Y-118063500D01*
X169236072Y-117992071D01*
X170307501Y-117992071D02*
X170807501Y-119492071D01*
X171307501Y-117992071D01*
X172593215Y-119492071D02*
X171736072Y-119492071D01*
X172164644Y-119492071D02*
X172164644Y-117992071D01*
X172021787Y-118206357D01*
X171878929Y-118349214D01*
X171736072Y-118420643D01*
X173878929Y-117992071D02*
X173593215Y-117992071D01*
X173450358Y-118063500D01*
X173378929Y-118134929D01*
X173236072Y-118349214D01*
X173164643Y-118634929D01*
X173164643Y-119206357D01*
X173236072Y-119349214D01*
X173307500Y-119420643D01*
X173450358Y-119492071D01*
X173736072Y-119492071D01*
X173878929Y-119420643D01*
X173950358Y-119349214D01*
X174021786Y-119206357D01*
X174021786Y-118849214D01*
X173950358Y-118706357D01*
X173878929Y-118634929D01*
X173736072Y-118563500D01*
X173450358Y-118563500D01*
X173307500Y-118634929D01*
X173236072Y-118706357D01*
X173164643Y-118849214D01*
X161231214Y-102850071D02*
X160374071Y-102850071D01*
X160802643Y-102850071D02*
X160802643Y-101350071D01*
X160659786Y-101564357D01*
X160516928Y-101707214D01*
X160374071Y-101778643D01*
X161874071Y-102278643D02*
X163016928Y-102278643D01*
X163588357Y-101350071D02*
X163945500Y-102850071D01*
X164231214Y-101778643D01*
X164516928Y-102850071D01*
X164874071Y-101350071D01*
X165445500Y-102850071D02*
X165445500Y-101850071D01*
X165445500Y-101350071D02*
X165374071Y-101421500D01*
X165445500Y-101492929D01*
X165516928Y-101421500D01*
X165445500Y-101350071D01*
X165445500Y-101492929D01*
X166159786Y-102850071D02*
X166159786Y-101850071D01*
X166159786Y-102135786D02*
X166231214Y-101992929D01*
X166302643Y-101921500D01*
X166445500Y-101850071D01*
X166588357Y-101850071D01*
X167659785Y-102778643D02*
X167516928Y-102850071D01*
X167231214Y-102850071D01*
X167088357Y-102778643D01*
X167016928Y-102635786D01*
X167016928Y-102064357D01*
X167088357Y-101921500D01*
X167231214Y-101850071D01*
X167516928Y-101850071D01*
X167659785Y-101921500D01*
X167731214Y-102064357D01*
X167731214Y-102207214D01*
X167016928Y-102350071D01*
X169374071Y-101350071D02*
X169731214Y-102850071D01*
X170016928Y-101778643D01*
X170302642Y-102850071D01*
X170659785Y-101350071D01*
X171231214Y-102850071D02*
X171231214Y-101850071D01*
X171231214Y-101350071D02*
X171159785Y-101421500D01*
X171231214Y-101492929D01*
X171302642Y-101421500D01*
X171231214Y-101350071D01*
X171231214Y-101492929D01*
X171945500Y-101850071D02*
X171945500Y-102850071D01*
X171945500Y-101992929D02*
X172016928Y-101921500D01*
X172159786Y-101850071D01*
X172374071Y-101850071D01*
X172516928Y-101921500D01*
X172588357Y-102064357D01*
X172588357Y-102850071D01*
X173945500Y-101850071D02*
X173945500Y-103064357D01*
X173874071Y-103207214D01*
X173802643Y-103278643D01*
X173659786Y-103350071D01*
X173445500Y-103350071D01*
X173302643Y-103278643D01*
X173945500Y-102778643D02*
X173802643Y-102850071D01*
X173516929Y-102850071D01*
X173374071Y-102778643D01*
X173302643Y-102707214D01*
X173231214Y-102564357D01*
X173231214Y-102135786D01*
X173302643Y-101992929D01*
X173374071Y-101921500D01*
X173516929Y-101850071D01*
X173802643Y-101850071D01*
X173945500Y-101921500D01*
X171346929Y-98429071D02*
X171346929Y-99500500D01*
X171275501Y-99714786D01*
X171132644Y-99857643D01*
X170918358Y-99929071D01*
X170775501Y-99929071D01*
X171846929Y-98571929D02*
X172132643Y-98357643D01*
X172418358Y-98571929D01*
X172775501Y-98429071D02*
X173704072Y-98429071D01*
X173204072Y-99000500D01*
X173418358Y-99000500D01*
X173561215Y-99071929D01*
X173632644Y-99143357D01*
X173704072Y-99286214D01*
X173704072Y-99643357D01*
X173632644Y-99786214D01*
X173561215Y-99857643D01*
X173418358Y-99929071D01*
X172989786Y-99929071D01*
X172846929Y-99857643D01*
X172775501Y-99786214D01*
D12*
X174307500Y-114414300D02*
X138112500Y-114414300D01*
X174307500Y-103619300D02*
X174307500Y-114414300D01*
X138112500Y-103619300D02*
X174307500Y-103619300D01*
X138112500Y-114414300D02*
X138112500Y-103619300D01*
D10*
X119916500Y-98773500D02*
X119916500Y-99473500D01*
X118716500Y-99473500D02*
X118716500Y-98773500D01*
X121602500Y-107632500D02*
X121602500Y-112712500D01*
X121602500Y-112712500D02*
X124142500Y-112712500D01*
X124142500Y-112712500D02*
X124142500Y-107632500D01*
X124422500Y-104812500D02*
X124422500Y-106362500D01*
X124142500Y-107632500D02*
X121602500Y-107632500D01*
X121322500Y-106362500D02*
X121322500Y-104812500D01*
X121322500Y-104812500D02*
X124422500Y-104812500D01*
X125912500Y-116816500D02*
X124912500Y-116816500D01*
X124912500Y-115466500D02*
X125912500Y-115466500D01*
X133961500Y-113355500D02*
X133961500Y-114355500D01*
X132611500Y-114355500D02*
X132611500Y-113355500D01*
X127690500Y-107291500D02*
X126690500Y-107291500D01*
X126690500Y-105941500D02*
X127690500Y-105941500D01*
X132611500Y-104703500D02*
X132611500Y-103703500D01*
X133961500Y-103703500D02*
X133961500Y-104703500D01*
X120846500Y-115702500D02*
X105216500Y-115702500D01*
X120846500Y-102102500D02*
X105216500Y-102102500D01*
X120846500Y-102102500D02*
X120846500Y-115702500D01*
X105216500Y-102102500D02*
X105216500Y-115702500D01*
X120883167Y-99052071D02*
X120549833Y-99052071D01*
X120549833Y-99575881D02*
X120549833Y-98575881D01*
X121026024Y-98575881D01*
X121930786Y-99575881D02*
X121359357Y-99575881D01*
X121645071Y-99575881D02*
X121645071Y-98575881D01*
X121549833Y-98718738D01*
X121454595Y-98813976D01*
X121359357Y-98861595D01*
X122039167Y-113434881D02*
X122039167Y-114149167D01*
X121991547Y-114292024D01*
X121896309Y-114387262D01*
X121753452Y-114434881D01*
X121658214Y-114434881D01*
X122515357Y-114434881D02*
X122515357Y-113434881D01*
X122896310Y-113434881D01*
X122991548Y-113482500D01*
X123039167Y-113530119D01*
X123086786Y-113625357D01*
X123086786Y-113768214D01*
X123039167Y-113863452D01*
X122991548Y-113911071D01*
X122896310Y-113958690D01*
X122515357Y-113958690D01*
X124039167Y-114434881D02*
X123467738Y-114434881D01*
X123753452Y-114434881D02*
X123753452Y-113434881D01*
X123658214Y-113577738D01*
X123562976Y-113672976D01*
X123467738Y-113720595D01*
X121943834Y-116593881D02*
X121610500Y-116117690D01*
X121372405Y-116593881D02*
X121372405Y-115593881D01*
X121753358Y-115593881D01*
X121848596Y-115641500D01*
X121896215Y-115689119D01*
X121943834Y-115784357D01*
X121943834Y-115927214D01*
X121896215Y-116022452D01*
X121848596Y-116070071D01*
X121753358Y-116117690D01*
X121372405Y-116117690D01*
X122800977Y-115593881D02*
X122610500Y-115593881D01*
X122515262Y-115641500D01*
X122467643Y-115689119D01*
X122372405Y-115831976D01*
X122324786Y-116022452D01*
X122324786Y-116403405D01*
X122372405Y-116498643D01*
X122420024Y-116546262D01*
X122515262Y-116593881D01*
X122705739Y-116593881D01*
X122800977Y-116546262D01*
X122848596Y-116498643D01*
X122896215Y-116403405D01*
X122896215Y-116165310D01*
X122848596Y-116070071D01*
X122800977Y-116022452D01*
X122705739Y-115974833D01*
X122515262Y-115974833D01*
X122420024Y-116022452D01*
X122372405Y-116070071D01*
X122324786Y-116165310D01*
X134897834Y-114307881D02*
X134564500Y-113831690D01*
X134326405Y-114307881D02*
X134326405Y-113307881D01*
X134707358Y-113307881D01*
X134802596Y-113355500D01*
X134850215Y-113403119D01*
X134897834Y-113498357D01*
X134897834Y-113641214D01*
X134850215Y-113736452D01*
X134802596Y-113784071D01*
X134707358Y-113831690D01*
X134326405Y-113831690D01*
X135231167Y-113307881D02*
X135897834Y-113307881D01*
X135469262Y-114307881D01*
X127023834Y-105290881D02*
X126690500Y-104814690D01*
X126452405Y-105290881D02*
X126452405Y-104290881D01*
X126833358Y-104290881D01*
X126928596Y-104338500D01*
X126976215Y-104386119D01*
X127023834Y-104481357D01*
X127023834Y-104624214D01*
X126976215Y-104719452D01*
X126928596Y-104767071D01*
X126833358Y-104814690D01*
X126452405Y-104814690D01*
X127595262Y-104719452D02*
X127500024Y-104671833D01*
X127452405Y-104624214D01*
X127404786Y-104528976D01*
X127404786Y-104481357D01*
X127452405Y-104386119D01*
X127500024Y-104338500D01*
X127595262Y-104290881D01*
X127785739Y-104290881D01*
X127880977Y-104338500D01*
X127928596Y-104386119D01*
X127976215Y-104481357D01*
X127976215Y-104528976D01*
X127928596Y-104624214D01*
X127880977Y-104671833D01*
X127785739Y-104719452D01*
X127595262Y-104719452D01*
X127500024Y-104767071D01*
X127452405Y-104814690D01*
X127404786Y-104909929D01*
X127404786Y-105100405D01*
X127452405Y-105195643D01*
X127500024Y-105243262D01*
X127595262Y-105290881D01*
X127785739Y-105290881D01*
X127880977Y-105243262D01*
X127928596Y-105195643D01*
X127976215Y-105100405D01*
X127976215Y-104909929D01*
X127928596Y-104814690D01*
X127880977Y-104767071D01*
X127785739Y-104719452D01*
X135024834Y-104528881D02*
X134691500Y-104052690D01*
X134453405Y-104528881D02*
X134453405Y-103528881D01*
X134834358Y-103528881D01*
X134929596Y-103576500D01*
X134977215Y-103624119D01*
X135024834Y-103719357D01*
X135024834Y-103862214D01*
X134977215Y-103957452D01*
X134929596Y-104005071D01*
X134834358Y-104052690D01*
X134453405Y-104052690D01*
X135501024Y-104528881D02*
X135691500Y-104528881D01*
X135786739Y-104481262D01*
X135834358Y-104433643D01*
X135929596Y-104290786D01*
X135977215Y-104100310D01*
X135977215Y-103719357D01*
X135929596Y-103624119D01*
X135881977Y-103576500D01*
X135786739Y-103528881D01*
X135596262Y-103528881D01*
X135501024Y-103576500D01*
X135453405Y-103624119D01*
X135405786Y-103719357D01*
X135405786Y-103957452D01*
X135453405Y-104052690D01*
X135501024Y-104100310D01*
X135596262Y-104147929D01*
X135786739Y-104147929D01*
X135881977Y-104100310D01*
X135929596Y-104052690D01*
X135977215Y-103957452D01*
X133731167Y-111212262D02*
X133874024Y-111259881D01*
X134112120Y-111259881D01*
X134207358Y-111212262D01*
X134254977Y-111164643D01*
X134302596Y-111069405D01*
X134302596Y-110974167D01*
X134254977Y-110878929D01*
X134207358Y-110831310D01*
X134112120Y-110783690D01*
X133921643Y-110736071D01*
X133826405Y-110688452D01*
X133778786Y-110640833D01*
X133731167Y-110545595D01*
X133731167Y-110450357D01*
X133778786Y-110355119D01*
X133826405Y-110307500D01*
X133921643Y-110259881D01*
X134159739Y-110259881D01*
X134302596Y-110307500D01*
X134635929Y-110259881D02*
X134874024Y-111259881D01*
X135064501Y-110545595D01*
X135254977Y-111259881D01*
X135493072Y-110259881D01*
X136397834Y-111259881D02*
X135826405Y-111259881D01*
X136112119Y-111259881D02*
X136112119Y-110259881D01*
X136016881Y-110402738D01*
X135921643Y-110497976D01*
X135826405Y-110545595D01*
X126873167Y-114641262D02*
X127016024Y-114688881D01*
X127254120Y-114688881D01*
X127349358Y-114641262D01*
X127396977Y-114593643D01*
X127444596Y-114498405D01*
X127444596Y-114403167D01*
X127396977Y-114307929D01*
X127349358Y-114260310D01*
X127254120Y-114212690D01*
X127063643Y-114165071D01*
X126968405Y-114117452D01*
X126920786Y-114069833D01*
X126873167Y-113974595D01*
X126873167Y-113879357D01*
X126920786Y-113784119D01*
X126968405Y-113736500D01*
X127063643Y-113688881D01*
X127301739Y-113688881D01*
X127444596Y-113736500D01*
X127777929Y-113688881D02*
X128016024Y-114688881D01*
X128206501Y-113974595D01*
X128396977Y-114688881D01*
X128635072Y-113688881D01*
X128968405Y-113784119D02*
X129016024Y-113736500D01*
X129111262Y-113688881D01*
X129349358Y-113688881D01*
X129444596Y-113736500D01*
X129492215Y-113784119D01*
X129539834Y-113879357D01*
X129539834Y-113974595D01*
X129492215Y-114117452D01*
X128920786Y-114688881D01*
X129539834Y-114688881D01*
X125857167Y-111212262D02*
X126000024Y-111259881D01*
X126238120Y-111259881D01*
X126333358Y-111212262D01*
X126380977Y-111164643D01*
X126428596Y-111069405D01*
X126428596Y-110974167D01*
X126380977Y-110878929D01*
X126333358Y-110831310D01*
X126238120Y-110783690D01*
X126047643Y-110736071D01*
X125952405Y-110688452D01*
X125904786Y-110640833D01*
X125857167Y-110545595D01*
X125857167Y-110450357D01*
X125904786Y-110355119D01*
X125952405Y-110307500D01*
X126047643Y-110259881D01*
X126285739Y-110259881D01*
X126428596Y-110307500D01*
X126761929Y-110259881D02*
X127000024Y-111259881D01*
X127190501Y-110545595D01*
X127380977Y-111259881D01*
X127619072Y-110259881D01*
X127904786Y-110259881D02*
X128523834Y-110259881D01*
X128190500Y-110640833D01*
X128333358Y-110640833D01*
X128428596Y-110688452D01*
X128476215Y-110736071D01*
X128523834Y-110831310D01*
X128523834Y-111069405D01*
X128476215Y-111164643D01*
X128428596Y-111212262D01*
X128333358Y-111259881D01*
X128047643Y-111259881D01*
X127952405Y-111212262D01*
X127904786Y-111164643D01*
X127000167Y-102957262D02*
X127143024Y-103004881D01*
X127381120Y-103004881D01*
X127476358Y-102957262D01*
X127523977Y-102909643D01*
X127571596Y-102814405D01*
X127571596Y-102719167D01*
X127523977Y-102623929D01*
X127476358Y-102576310D01*
X127381120Y-102528690D01*
X127190643Y-102481071D01*
X127095405Y-102433452D01*
X127047786Y-102385833D01*
X127000167Y-102290595D01*
X127000167Y-102195357D01*
X127047786Y-102100119D01*
X127095405Y-102052500D01*
X127190643Y-102004881D01*
X127428739Y-102004881D01*
X127571596Y-102052500D01*
X127904929Y-102004881D02*
X128143024Y-103004881D01*
X128333501Y-102290595D01*
X128523977Y-103004881D01*
X128762072Y-102004881D01*
X129571596Y-102338214D02*
X129571596Y-103004881D01*
X129333500Y-101957262D02*
X129095405Y-102671548D01*
X129714453Y-102671548D01*
X110744167Y-117562262D02*
X110887024Y-117609881D01*
X111125120Y-117609881D01*
X111220358Y-117562262D01*
X111267977Y-117514643D01*
X111315596Y-117419405D01*
X111315596Y-117324167D01*
X111267977Y-117228929D01*
X111220358Y-117181310D01*
X111125120Y-117133690D01*
X110934643Y-117086071D01*
X110839405Y-117038452D01*
X110791786Y-116990833D01*
X110744167Y-116895595D01*
X110744167Y-116800357D01*
X110791786Y-116705119D01*
X110839405Y-116657500D01*
X110934643Y-116609881D01*
X111172739Y-116609881D01*
X111315596Y-116657500D01*
X111648929Y-116609881D02*
X111887024Y-117609881D01*
X112077501Y-116895595D01*
X112267977Y-117609881D01*
X112506072Y-116609881D01*
X113363215Y-116609881D02*
X112887024Y-116609881D01*
X112839405Y-117086071D01*
X112887024Y-117038452D01*
X112982262Y-116990833D01*
X113220358Y-116990833D01*
X113315596Y-117038452D01*
X113363215Y-117086071D01*
X113410834Y-117181310D01*
X113410834Y-117419405D01*
X113363215Y-117514643D01*
X113315596Y-117562262D01*
X113220358Y-117609881D01*
X112982262Y-117609881D01*
X112887024Y-117562262D01*
X112839405Y-117514643D01*
X106029167Y-100734881D02*
X106029167Y-101449167D01*
X105981547Y-101592024D01*
X105886309Y-101687262D01*
X105743452Y-101734881D01*
X105648214Y-101734881D01*
X107029167Y-101734881D02*
X106457738Y-101734881D01*
X106743452Y-101734881D02*
X106743452Y-100734881D01*
X106648214Y-100877738D01*
X106552976Y-100972976D01*
X106457738Y-101020595D01*
M02*
