G04 #@! TF.FileFunction,Soldermask,Top*
%FSLAX46Y46*%
G04 Gerber Fmt 4.6, Leading zero omitted, Abs format (unit mm)*
G04 Created by KiCad (PCBNEW 4.0.4-stable) date 11/28/16 12:13:09*
%MOMM*%
%LPD*%
G01*
G04 APERTURE LIST*
%ADD10C,0.150000*%
%ADD11R,1.150000X1.600000*%
%ADD12R,2.127200X2.432000*%
%ADD13O,2.127200X2.432000*%
%ADD14R,2.432000X2.127200*%
%ADD15O,2.432000X2.127200*%
%ADD16R,1.600000X1.300000*%
%ADD17R,1.300000X1.600000*%
%ADD18R,1.200000X2.100000*%
%ADD19R,2.100000X1.200000*%
%ADD20C,1.670000*%
%ADD21C,3.650000*%
G04 APERTURE END LIST*
D10*
D11*
X119316500Y-98173500D03*
X119316500Y-100073500D03*
D12*
X120967500Y-119062500D03*
D13*
X123507500Y-119062500D03*
X126047500Y-119062500D03*
X128587500Y-119062500D03*
X131127500Y-119062500D03*
X133667500Y-119062500D03*
X136207500Y-119062500D03*
X138747500Y-119062500D03*
X141287500Y-119062500D03*
X143827500Y-119062500D03*
X146367500Y-119062500D03*
X148907500Y-119062500D03*
X151447500Y-119062500D03*
X153987500Y-119062500D03*
X156527500Y-119062500D03*
X159067500Y-119062500D03*
D12*
X131127500Y-98742500D03*
D13*
X133667500Y-98742500D03*
X136207500Y-98742500D03*
X138747500Y-98742500D03*
X141287500Y-98742500D03*
X143827500Y-98742500D03*
X146367500Y-98742500D03*
X148907500Y-98742500D03*
X151447500Y-98742500D03*
X153987500Y-98742500D03*
X156527500Y-98742500D03*
X159067500Y-98742500D03*
D14*
X122872500Y-106362500D03*
D15*
X122872500Y-108902500D03*
X122872500Y-111442500D03*
D16*
X124312500Y-116141500D03*
X126512500Y-116141500D03*
D17*
X133286500Y-114955500D03*
X133286500Y-112755500D03*
D16*
X126090500Y-106616500D03*
X128290500Y-106616500D03*
D17*
X133286500Y-103103500D03*
X133286500Y-105303500D03*
D18*
X136637500Y-108902500D03*
X133237500Y-108902500D03*
D19*
X131000500Y-115301500D03*
X131000500Y-111901500D03*
D18*
X125490500Y-108902500D03*
X128890500Y-108902500D03*
D19*
X131000500Y-102503500D03*
X131000500Y-105903500D03*
D18*
X113777500Y-119062500D03*
X110377500Y-119062500D03*
D20*
X119316500Y-105727500D03*
X116776500Y-106997500D03*
X119316500Y-108267500D03*
X116776500Y-109537500D03*
X119316500Y-110807500D03*
X116776500Y-112077500D03*
D21*
X110426500Y-103822500D03*
X110426500Y-113982500D03*
M02*
