G04 #@! TF.FileFunction,Copper,L2,Bot,Signal*
%FSLAX46Y46*%
G04 Gerber Fmt 4.6, Leading zero omitted, Abs format (unit mm)*
G04 Created by KiCad (PCBNEW 4.0.4-stable) date 11/28/16 12:13:09*
%MOMM*%
%LPD*%
G01*
G04 APERTURE LIST*
%ADD10C,0.150000*%
%ADD11R,0.750000X1.200000*%
%ADD12R,1.250000X1.500000*%
%ADD13R,0.800000X0.300000*%
%ADD14R,1.727200X2.032000*%
%ADD15O,1.727200X2.032000*%
%ADD16R,2.032000X1.727200*%
%ADD17O,2.032000X1.727200*%
%ADD18R,0.900000X1.200000*%
%ADD19R,1.330000X0.560000*%
%ADD20C,1.270000*%
%ADD21C,0.635000*%
%ADD22C,0.254000*%
G04 APERTURE END LIST*
D10*
D11*
X138112500Y-109852500D03*
X138112500Y-107952500D03*
D12*
X154495500Y-110319500D03*
X154495500Y-112819500D03*
D13*
X156781500Y-107152500D03*
X156781500Y-107652500D03*
X156781500Y-108152500D03*
X156781500Y-108652500D03*
X156781500Y-109152500D03*
X156781500Y-109652500D03*
X156781500Y-110152500D03*
X156781500Y-110652500D03*
X159281500Y-106102500D03*
X159281500Y-111702500D03*
D14*
X120967500Y-119062500D03*
D15*
X123507500Y-119062500D03*
X126047500Y-119062500D03*
X128587500Y-119062500D03*
X131127500Y-119062500D03*
X133667500Y-119062500D03*
X136207500Y-119062500D03*
X138747500Y-119062500D03*
X141287500Y-119062500D03*
X143827500Y-119062500D03*
X146367500Y-119062500D03*
X148907500Y-119062500D03*
X151447500Y-119062500D03*
X153987500Y-119062500D03*
X156527500Y-119062500D03*
X159067500Y-119062500D03*
D14*
X131127500Y-98742500D03*
D15*
X133667500Y-98742500D03*
X136207500Y-98742500D03*
X138747500Y-98742500D03*
X141287500Y-98742500D03*
X143827500Y-98742500D03*
X146367500Y-98742500D03*
X148907500Y-98742500D03*
X151447500Y-98742500D03*
X153987500Y-98742500D03*
X156527500Y-98742500D03*
X159067500Y-98742500D03*
D16*
X122872500Y-106362500D03*
D17*
X122872500Y-108902500D03*
X122872500Y-111442500D03*
D18*
X140017500Y-110002500D03*
X140017500Y-107802500D03*
X141922500Y-110002500D03*
X141922500Y-107802500D03*
X133032500Y-115082500D03*
X133032500Y-112882500D03*
X122872500Y-101579500D03*
X122872500Y-103779500D03*
X128460500Y-109494500D03*
X128460500Y-107294500D03*
D19*
X133102500Y-109537500D03*
X133102500Y-108587500D03*
X133102500Y-107637500D03*
X135502500Y-107637500D03*
X135502500Y-108587500D03*
X135502500Y-109537500D03*
D20*
X119316500Y-105727500D03*
X116776500Y-106997500D03*
X119316500Y-108267500D03*
X116776500Y-109537500D03*
X119316500Y-110807500D03*
X116776500Y-112077500D03*
D21*
X134853500Y-115082500D03*
X122872500Y-99885500D03*
X143954500Y-102933500D03*
X141922500Y-115252500D03*
X154495500Y-115252500D03*
X136715500Y-111442500D03*
X126301500Y-101536500D03*
X108013500Y-118300500D03*
X150304500Y-117411500D03*
X148272500Y-117411500D03*
X154114500Y-102806500D03*
X153098500Y-102171500D03*
X151955500Y-101409500D03*
X142811500Y-101663500D03*
X139255500Y-102298500D03*
D22*
X133032500Y-115082500D02*
X134853500Y-115082500D01*
X138112500Y-109852500D02*
X138112500Y-114236500D01*
X138112500Y-114236500D02*
X137266500Y-115082500D01*
X137266500Y-115082500D02*
X133032500Y-115082500D01*
X133032500Y-115082500D02*
X134853500Y-115082500D01*
X134853500Y-115082500D02*
X135502500Y-114433500D01*
X135502500Y-114433500D02*
X135502500Y-109537500D01*
X122872500Y-101579500D02*
X122872500Y-99885500D01*
X141922500Y-110002500D02*
X142981500Y-110002500D01*
X142981500Y-110002500D02*
X143954500Y-109029500D01*
X143954500Y-109029500D02*
X143954500Y-102933500D01*
X154495500Y-109938500D02*
X142239500Y-109938500D01*
X142239500Y-110319500D02*
X141922500Y-110002500D01*
X141922500Y-110002500D02*
X141922500Y-115252500D01*
X135502500Y-109537500D02*
X135572500Y-109537500D01*
X154495500Y-110319500D02*
X155237500Y-110319500D01*
X155237500Y-110319500D02*
X155904500Y-109652500D01*
X155904500Y-109652500D02*
X156781500Y-109652500D01*
X138112500Y-109852500D02*
X139867500Y-109852500D01*
X139867500Y-109852500D02*
X140017500Y-110002500D01*
X140017500Y-110002500D02*
X141922500Y-110002500D01*
X156781500Y-110652500D02*
X156781500Y-112077500D01*
X156781500Y-112077500D02*
X156039500Y-112819500D01*
X156039500Y-112819500D02*
X154495500Y-112819500D01*
X146367500Y-119062500D02*
X146367500Y-118300500D01*
X146367500Y-118300500D02*
X147256500Y-117411500D01*
X159425700Y-107152500D02*
X156781500Y-107152500D01*
X160591500Y-108318300D02*
X159425700Y-107152500D01*
X160591500Y-115760500D02*
X160591500Y-108318300D01*
X158940500Y-117411500D02*
X160591500Y-115760500D01*
X150304500Y-117411500D02*
X158940500Y-117411500D01*
X147256500Y-117411500D02*
X148272500Y-117411500D01*
X148907500Y-119062500D02*
X148907500Y-117792500D01*
X148907500Y-117792500D02*
X150050500Y-116649500D01*
X150050500Y-116649500D02*
X158940500Y-116649500D01*
X158940500Y-116649500D02*
X160083500Y-115506500D01*
X160083500Y-115506500D02*
X160083500Y-108521500D01*
X160083500Y-108521500D02*
X159214500Y-107652500D01*
X159214500Y-107652500D02*
X156781500Y-107652500D01*
X156781500Y-108152500D02*
X156158500Y-108152500D01*
X156158500Y-108152500D02*
X155892500Y-107886500D01*
X155892500Y-107886500D02*
X155892500Y-104584500D01*
X155892500Y-104584500D02*
X154114500Y-102806500D01*
X153098500Y-102171500D02*
X153123900Y-102171500D01*
X153123900Y-102171500D02*
X153454100Y-102501700D01*
X153454100Y-102501700D02*
X153454100Y-103085900D01*
X153454100Y-103085900D02*
X155308300Y-104940100D01*
X155308300Y-104940100D02*
X155308300Y-105498900D01*
X156781500Y-108652500D02*
X156023500Y-108652500D01*
X156023500Y-108652500D02*
X155308300Y-107937300D01*
X155308300Y-107937300D02*
X155308300Y-105498900D01*
X151955500Y-101409500D02*
X152006300Y-101409500D01*
X152006300Y-101409500D02*
X152412700Y-101815900D01*
X152412700Y-101815900D02*
X152412700Y-102831900D01*
X152412700Y-102831900D02*
X154800300Y-105219500D01*
X154800300Y-105219500D02*
X154800300Y-108115100D01*
X154800300Y-108115100D02*
X155837700Y-109152500D01*
X155837700Y-109152500D02*
X156781500Y-109152500D01*
X122872500Y-106362500D02*
X122872500Y-103779500D01*
X138747500Y-100139500D02*
X138747500Y-98742500D01*
X138747500Y-100139500D02*
X138493500Y-100393500D01*
X138493500Y-100393500D02*
X130238500Y-100393500D01*
X130238500Y-100393500D02*
X124269500Y-106362500D01*
X124269500Y-106362500D02*
X122872500Y-106362500D01*
X141287500Y-98742500D02*
X141287500Y-100647500D01*
X141287500Y-100647500D02*
X141033500Y-100901500D01*
X141033500Y-100901500D02*
X130492500Y-100901500D01*
X130492500Y-100901500D02*
X128460500Y-102933500D01*
X128460500Y-102933500D02*
X128460500Y-107294500D01*
X133102500Y-107637500D02*
X131894500Y-107637500D01*
X131894500Y-107637500D02*
X131508500Y-107251500D01*
X131508500Y-107251500D02*
X131508500Y-103822500D01*
X131508500Y-103822500D02*
X132143500Y-103187500D01*
X132143500Y-103187500D02*
X139509500Y-103187500D01*
X139509500Y-103187500D02*
X140017500Y-103695500D01*
X140017500Y-103695500D02*
X140017500Y-107802500D01*
X156527500Y-98742500D02*
X156527500Y-99885500D01*
X156527500Y-99885500D02*
X156273500Y-100139500D01*
X156273500Y-100139500D02*
X142811500Y-100139500D01*
X142811500Y-100139500D02*
X140017500Y-102933500D01*
X140017500Y-102933500D02*
X140017500Y-104711500D01*
X140017500Y-104711500D02*
X140017500Y-107802500D01*
X141922500Y-107802500D02*
X141922500Y-102552500D01*
X141922500Y-102552500D02*
X142811500Y-101663500D01*
X143002002Y-100964998D02*
X142811500Y-101155500D01*
X142811500Y-101155500D02*
X142811500Y-101663500D01*
X139255500Y-102298500D02*
X132270500Y-102298500D01*
X132270500Y-102298500D02*
X131000500Y-103568500D01*
X131000500Y-103568500D02*
X131000500Y-107759500D01*
X131000500Y-107759500D02*
X131828500Y-108587500D01*
X131828500Y-108587500D02*
X133102500Y-108587500D01*
X159067500Y-98742500D02*
X159067500Y-100012500D01*
X159067500Y-100012500D02*
X158432500Y-100647500D01*
X158432500Y-100647500D02*
X150621998Y-100647500D01*
X150621998Y-100647500D02*
X143319500Y-100647500D01*
X143319500Y-100647500D02*
X143002002Y-100964998D01*
X143002002Y-100964998D02*
X143002002Y-100964998D01*
X122872500Y-108902500D02*
X119951500Y-108902500D01*
X119951500Y-108902500D02*
X119316500Y-108267500D01*
X122872500Y-111442500D02*
X125793500Y-111442500D01*
X125793500Y-111442500D02*
X128333500Y-113982500D01*
X128333500Y-113982500D02*
X133921500Y-113982500D01*
X133921500Y-113982500D02*
X134302500Y-113601500D01*
X134302500Y-113601500D02*
X134302500Y-109029500D01*
X134302500Y-109029500D02*
X134744500Y-108587500D01*
X134744500Y-108587500D02*
X135502500Y-108587500D01*
X133102500Y-109537500D02*
X128503500Y-109537500D01*
X128503500Y-109537500D02*
X128460500Y-109494500D01*
X128503500Y-109537500D02*
X128460500Y-109494500D01*
X133032500Y-112882500D02*
X133032500Y-109607500D01*
X133032500Y-109607500D02*
X133102500Y-109537500D01*
G36*
X173097489Y-97699652D02*
X173686670Y-98093330D01*
X174080348Y-98682511D01*
X174232500Y-99447431D01*
X174232500Y-118357569D01*
X174080348Y-119122489D01*
X173686670Y-119711670D01*
X173097489Y-120105348D01*
X172332569Y-120257500D01*
X160108677Y-120257500D01*
X160359454Y-119976820D01*
X160552684Y-119424413D01*
X160408424Y-119189500D01*
X159194500Y-119189500D01*
X159194500Y-119209500D01*
X158940500Y-119209500D01*
X158940500Y-119189500D01*
X158920500Y-119189500D01*
X158920500Y-118935500D01*
X158940500Y-118935500D01*
X158940500Y-118915500D01*
X159194500Y-118915500D01*
X159194500Y-118935500D01*
X160408424Y-118935500D01*
X160552684Y-118700587D01*
X160359454Y-118148180D01*
X159969536Y-117711768D01*
X159799682Y-117629948D01*
X161130316Y-116299315D01*
X161295497Y-116052104D01*
X161353500Y-115760500D01*
X161353500Y-108318300D01*
X161295496Y-108026695D01*
X161130315Y-107779485D01*
X160093074Y-106742244D01*
X160132941Y-106716590D01*
X160277931Y-106504390D01*
X160328940Y-106252500D01*
X160328940Y-105952500D01*
X160284662Y-105717183D01*
X160145590Y-105501059D01*
X159933390Y-105356069D01*
X159681500Y-105305060D01*
X158881500Y-105305060D01*
X158646183Y-105349338D01*
X158430059Y-105488410D01*
X158285069Y-105700610D01*
X158234060Y-105952500D01*
X158234060Y-106252500D01*
X158260027Y-106390500D01*
X157356508Y-106390500D01*
X157181500Y-106355060D01*
X156654500Y-106355060D01*
X156654500Y-104584500D01*
X156596496Y-104292895D01*
X156516174Y-104172685D01*
X156431316Y-104045685D01*
X155067110Y-102681479D01*
X155067165Y-102617867D01*
X154922461Y-102267657D01*
X154654753Y-101999480D01*
X154304795Y-101854165D01*
X153997876Y-101853898D01*
X153906461Y-101632657D01*
X153683694Y-101409500D01*
X158432500Y-101409500D01*
X158724105Y-101351496D01*
X158971315Y-101186315D01*
X159606316Y-100551315D01*
X159732354Y-100362685D01*
X159771496Y-100304105D01*
X159789742Y-100212377D01*
X160127170Y-99986915D01*
X160452026Y-99500734D01*
X160566100Y-98927245D01*
X160566100Y-98557755D01*
X160452026Y-97984266D01*
X160160188Y-97547500D01*
X172332569Y-97547500D01*
X173097489Y-97699652D01*
X173097489Y-97699652D01*
G37*
X173097489Y-97699652D02*
X173686670Y-98093330D01*
X174080348Y-98682511D01*
X174232500Y-99447431D01*
X174232500Y-118357569D01*
X174080348Y-119122489D01*
X173686670Y-119711670D01*
X173097489Y-120105348D01*
X172332569Y-120257500D01*
X160108677Y-120257500D01*
X160359454Y-119976820D01*
X160552684Y-119424413D01*
X160408424Y-119189500D01*
X159194500Y-119189500D01*
X159194500Y-119209500D01*
X158940500Y-119209500D01*
X158940500Y-119189500D01*
X158920500Y-119189500D01*
X158920500Y-118935500D01*
X158940500Y-118935500D01*
X158940500Y-118915500D01*
X159194500Y-118915500D01*
X159194500Y-118935500D01*
X160408424Y-118935500D01*
X160552684Y-118700587D01*
X160359454Y-118148180D01*
X159969536Y-117711768D01*
X159799682Y-117629948D01*
X161130316Y-116299315D01*
X161295497Y-116052104D01*
X161353500Y-115760500D01*
X161353500Y-108318300D01*
X161295496Y-108026695D01*
X161130315Y-107779485D01*
X160093074Y-106742244D01*
X160132941Y-106716590D01*
X160277931Y-106504390D01*
X160328940Y-106252500D01*
X160328940Y-105952500D01*
X160284662Y-105717183D01*
X160145590Y-105501059D01*
X159933390Y-105356069D01*
X159681500Y-105305060D01*
X158881500Y-105305060D01*
X158646183Y-105349338D01*
X158430059Y-105488410D01*
X158285069Y-105700610D01*
X158234060Y-105952500D01*
X158234060Y-106252500D01*
X158260027Y-106390500D01*
X157356508Y-106390500D01*
X157181500Y-106355060D01*
X156654500Y-106355060D01*
X156654500Y-104584500D01*
X156596496Y-104292895D01*
X156516174Y-104172685D01*
X156431316Y-104045685D01*
X155067110Y-102681479D01*
X155067165Y-102617867D01*
X154922461Y-102267657D01*
X154654753Y-101999480D01*
X154304795Y-101854165D01*
X153997876Y-101853898D01*
X153906461Y-101632657D01*
X153683694Y-101409500D01*
X158432500Y-101409500D01*
X158724105Y-101351496D01*
X158971315Y-101186315D01*
X159606316Y-100551315D01*
X159732354Y-100362685D01*
X159771496Y-100304105D01*
X159789742Y-100212377D01*
X160127170Y-99986915D01*
X160452026Y-99500734D01*
X160566100Y-98927245D01*
X160566100Y-98557755D01*
X160452026Y-97984266D01*
X160160188Y-97547500D01*
X172332569Y-97547500D01*
X173097489Y-97699652D01*
G36*
X129616460Y-97726500D02*
X129616460Y-99758500D01*
X129644872Y-99909497D01*
X124413012Y-105141358D01*
X124352590Y-105047459D01*
X124140390Y-104902469D01*
X123888500Y-104851460D01*
X123761711Y-104851460D01*
X123773941Y-104843590D01*
X123918931Y-104631390D01*
X123969940Y-104379500D01*
X123969940Y-103179500D01*
X123925662Y-102944183D01*
X123786590Y-102728059D01*
X123716789Y-102680366D01*
X123773941Y-102643590D01*
X123918931Y-102431390D01*
X123969940Y-102179500D01*
X123969940Y-100979500D01*
X123925662Y-100744183D01*
X123786590Y-100528059D01*
X123662186Y-100443057D01*
X123679520Y-100425753D01*
X123824835Y-100075795D01*
X123825165Y-99696867D01*
X123680461Y-99346657D01*
X123412753Y-99078480D01*
X123062795Y-98933165D01*
X122683867Y-98932835D01*
X122333657Y-99077539D01*
X122065480Y-99345247D01*
X121920165Y-99695205D01*
X121919835Y-100074133D01*
X122064539Y-100424343D01*
X122083329Y-100443166D01*
X121971059Y-100515410D01*
X121826069Y-100727610D01*
X121775060Y-100979500D01*
X121775060Y-102179500D01*
X121819338Y-102414817D01*
X121958410Y-102630941D01*
X122028211Y-102678634D01*
X121971059Y-102715410D01*
X121826069Y-102927610D01*
X121775060Y-103179500D01*
X121775060Y-104379500D01*
X121819338Y-104614817D01*
X121958410Y-104830941D01*
X121988441Y-104851460D01*
X121856500Y-104851460D01*
X121621183Y-104895738D01*
X121405059Y-105034810D01*
X121260069Y-105247010D01*
X121209060Y-105498900D01*
X121209060Y-107226100D01*
X121253338Y-107461417D01*
X121392410Y-107677541D01*
X121604610Y-107822531D01*
X121645939Y-107830900D01*
X121628085Y-107842830D01*
X121429188Y-108140500D01*
X120586611Y-108140500D01*
X120586720Y-108015990D01*
X120393782Y-107549042D01*
X120036837Y-107191474D01*
X119570227Y-106997721D01*
X119568012Y-106997719D01*
X120034958Y-106804782D01*
X120392526Y-106447837D01*
X120586279Y-105981227D01*
X120586720Y-105475990D01*
X120393782Y-105009042D01*
X120036837Y-104651474D01*
X119570227Y-104457721D01*
X119064990Y-104457280D01*
X118598042Y-104650218D01*
X118240474Y-105007163D01*
X118046721Y-105473773D01*
X118046280Y-105979010D01*
X118239218Y-106445958D01*
X118596163Y-106803526D01*
X119062773Y-106997279D01*
X119064988Y-106997281D01*
X118598042Y-107190218D01*
X118240474Y-107547163D01*
X118046721Y-108013773D01*
X118046280Y-108519010D01*
X118239218Y-108985958D01*
X118596163Y-109343526D01*
X119062773Y-109537279D01*
X119064988Y-109537281D01*
X118598042Y-109730218D01*
X118240474Y-110087163D01*
X118046721Y-110553773D01*
X118046280Y-111059010D01*
X118239218Y-111525958D01*
X118596163Y-111883526D01*
X119062773Y-112077279D01*
X119568010Y-112077720D01*
X120034958Y-111884782D01*
X120392526Y-111527837D01*
X120586279Y-111061227D01*
X120586720Y-110555990D01*
X120393782Y-110089042D01*
X120036837Y-109731474D01*
X119805704Y-109635499D01*
X119951500Y-109664500D01*
X121429188Y-109664500D01*
X121628085Y-109962170D01*
X121942866Y-110172500D01*
X121628085Y-110382830D01*
X121303229Y-110869011D01*
X121189155Y-111442500D01*
X121303229Y-112015989D01*
X121628085Y-112502170D01*
X122114266Y-112827026D01*
X122687755Y-112941100D01*
X123057245Y-112941100D01*
X123630734Y-112827026D01*
X124116915Y-112502170D01*
X124315812Y-112204500D01*
X125477870Y-112204500D01*
X127794684Y-114521315D01*
X128041895Y-114686496D01*
X128333500Y-114744500D01*
X131935060Y-114744500D01*
X131935060Y-115682500D01*
X131979338Y-115917817D01*
X132118410Y-116133941D01*
X132330610Y-116278931D01*
X132582500Y-116329940D01*
X133482500Y-116329940D01*
X133717817Y-116285662D01*
X133933941Y-116146590D01*
X134078931Y-115934390D01*
X134097134Y-115844500D01*
X134268306Y-115844500D01*
X134313247Y-115889520D01*
X134663205Y-116034835D01*
X135042133Y-116035165D01*
X135392343Y-115890461D01*
X135438385Y-115844500D01*
X137266500Y-115844500D01*
X137558105Y-115786496D01*
X137805315Y-115621315D01*
X138651316Y-114775315D01*
X138750334Y-114627123D01*
X138816496Y-114528105D01*
X138874500Y-114236500D01*
X138874500Y-110958057D01*
X138938941Y-110916590D01*
X138978125Y-110859242D01*
X139103410Y-111053941D01*
X139315610Y-111198931D01*
X139567500Y-111249940D01*
X140467500Y-111249940D01*
X140702817Y-111205662D01*
X140918941Y-111066590D01*
X140969209Y-110993021D01*
X141008410Y-111053941D01*
X141160500Y-111157860D01*
X141160500Y-114667306D01*
X141115480Y-114712247D01*
X140970165Y-115062205D01*
X140969835Y-115441133D01*
X141114539Y-115791343D01*
X141382247Y-116059520D01*
X141732205Y-116204835D01*
X142111133Y-116205165D01*
X142461343Y-116060461D01*
X142729520Y-115792753D01*
X142874835Y-115442795D01*
X142875165Y-115063867D01*
X142730461Y-114713657D01*
X142684500Y-114667615D01*
X142684500Y-113105250D01*
X153235500Y-113105250D01*
X153235500Y-113695809D01*
X153332173Y-113929198D01*
X153510801Y-114107827D01*
X153744190Y-114204500D01*
X154209750Y-114204500D01*
X154368500Y-114045750D01*
X154368500Y-112946500D01*
X154622500Y-112946500D01*
X154622500Y-114045750D01*
X154781250Y-114204500D01*
X155246810Y-114204500D01*
X155480199Y-114107827D01*
X155658827Y-113929198D01*
X155755500Y-113695809D01*
X155755500Y-113105250D01*
X155596750Y-112946500D01*
X154622500Y-112946500D01*
X154368500Y-112946500D01*
X153394250Y-112946500D01*
X153235500Y-113105250D01*
X142684500Y-113105250D01*
X142684500Y-111156318D01*
X142823941Y-111066590D01*
X142968931Y-110854390D01*
X142987371Y-110763332D01*
X143273105Y-110706496D01*
X143282079Y-110700500D01*
X153223060Y-110700500D01*
X153223060Y-111069500D01*
X153267338Y-111304817D01*
X153406410Y-111520941D01*
X153474506Y-111567469D01*
X153332173Y-111709802D01*
X153235500Y-111943191D01*
X153235500Y-112533750D01*
X153394250Y-112692500D01*
X154368500Y-112692500D01*
X154368500Y-112672500D01*
X154622500Y-112672500D01*
X154622500Y-112692500D01*
X155596750Y-112692500D01*
X155755500Y-112533750D01*
X155755500Y-111943191D01*
X155658827Y-111709802D01*
X155517590Y-111568564D01*
X155571941Y-111533590D01*
X155716931Y-111321390D01*
X155767940Y-111069500D01*
X155767940Y-110980570D01*
X155843173Y-111162198D01*
X156021801Y-111340827D01*
X156255190Y-111437500D01*
X156495750Y-111437500D01*
X156654500Y-111278750D01*
X156654500Y-110949940D01*
X156908500Y-110949940D01*
X156908500Y-111278750D01*
X157067250Y-111437500D01*
X157307810Y-111437500D01*
X157541199Y-111340827D01*
X157719827Y-111162198D01*
X157816500Y-110928809D01*
X157816500Y-110886250D01*
X157658879Y-110728629D01*
X157777931Y-110554390D01*
X157802580Y-110432670D01*
X157816500Y-110418750D01*
X157816500Y-110376191D01*
X157814832Y-110372165D01*
X157828940Y-110302500D01*
X157828940Y-110002500D01*
X157809433Y-109898829D01*
X157828940Y-109802500D01*
X157828940Y-109502500D01*
X157809433Y-109398829D01*
X157828940Y-109302500D01*
X157828940Y-109002500D01*
X157809433Y-108898829D01*
X157828940Y-108802500D01*
X157828940Y-108502500D01*
X157812382Y-108414500D01*
X158898870Y-108414500D01*
X159321500Y-108837131D01*
X159321500Y-110905060D01*
X158881500Y-110905060D01*
X158646183Y-110949338D01*
X158430059Y-111088410D01*
X158285069Y-111300610D01*
X158234060Y-111552500D01*
X158234060Y-111852500D01*
X158278338Y-112087817D01*
X158417410Y-112303941D01*
X158629610Y-112448931D01*
X158881500Y-112499940D01*
X159321500Y-112499940D01*
X159321500Y-115190870D01*
X158624870Y-115887500D01*
X150050500Y-115887500D01*
X149758895Y-115945504D01*
X149511685Y-116110685D01*
X148915232Y-116707138D01*
X148812753Y-116604480D01*
X148462795Y-116459165D01*
X148083867Y-116458835D01*
X147733657Y-116603539D01*
X147687615Y-116649500D01*
X147256500Y-116649500D01*
X146964895Y-116707504D01*
X146719837Y-116871247D01*
X146717685Y-116872685D01*
X146172409Y-117417961D01*
X145794011Y-117493229D01*
X145307830Y-117818085D01*
X145097500Y-118132866D01*
X144887170Y-117818085D01*
X144400989Y-117493229D01*
X143827500Y-117379155D01*
X143254011Y-117493229D01*
X142767830Y-117818085D01*
X142557500Y-118132866D01*
X142347170Y-117818085D01*
X141860989Y-117493229D01*
X141287500Y-117379155D01*
X140714011Y-117493229D01*
X140227830Y-117818085D01*
X140017500Y-118132866D01*
X139807170Y-117818085D01*
X139320989Y-117493229D01*
X138747500Y-117379155D01*
X138174011Y-117493229D01*
X137687830Y-117818085D01*
X137477500Y-118132866D01*
X137267170Y-117818085D01*
X136780989Y-117493229D01*
X136207500Y-117379155D01*
X135634011Y-117493229D01*
X135147830Y-117818085D01*
X134937500Y-118132866D01*
X134727170Y-117818085D01*
X134240989Y-117493229D01*
X133667500Y-117379155D01*
X133094011Y-117493229D01*
X132607830Y-117818085D01*
X132397500Y-118132866D01*
X132187170Y-117818085D01*
X131700989Y-117493229D01*
X131127500Y-117379155D01*
X130554011Y-117493229D01*
X130067830Y-117818085D01*
X129861039Y-118127569D01*
X129489536Y-117711768D01*
X128962291Y-117457791D01*
X128946526Y-117455142D01*
X128714500Y-117576283D01*
X128714500Y-118935500D01*
X128734500Y-118935500D01*
X128734500Y-119189500D01*
X128714500Y-119189500D01*
X128714500Y-119209500D01*
X128460500Y-119209500D01*
X128460500Y-119189500D01*
X128440500Y-119189500D01*
X128440500Y-118935500D01*
X128460500Y-118935500D01*
X128460500Y-117576283D01*
X128228474Y-117455142D01*
X128212709Y-117457791D01*
X127685464Y-117711768D01*
X127313961Y-118127569D01*
X127107170Y-117818085D01*
X126620989Y-117493229D01*
X126047500Y-117379155D01*
X125474011Y-117493229D01*
X124987830Y-117818085D01*
X124777500Y-118132866D01*
X124567170Y-117818085D01*
X124080989Y-117493229D01*
X123507500Y-117379155D01*
X122934011Y-117493229D01*
X122447830Y-117818085D01*
X122438257Y-117832413D01*
X122434262Y-117811183D01*
X122295190Y-117595059D01*
X122082990Y-117450069D01*
X121831100Y-117399060D01*
X120103900Y-117399060D01*
X119868583Y-117443338D01*
X119652459Y-117582410D01*
X119507469Y-117794610D01*
X119456460Y-118046500D01*
X119456460Y-120078500D01*
X119490141Y-120257500D01*
X107702431Y-120257500D01*
X106937511Y-120105348D01*
X106348330Y-119711670D01*
X105954652Y-119122489D01*
X105802500Y-118357569D01*
X105802500Y-114430070D01*
X108166109Y-114430070D01*
X108509448Y-115261015D01*
X109144641Y-115897318D01*
X109974986Y-116242107D01*
X110874070Y-116242891D01*
X111705015Y-115899552D01*
X112341318Y-115264359D01*
X112686107Y-114434014D01*
X112686891Y-113534930D01*
X112343552Y-112703985D01*
X111969232Y-112329010D01*
X115506280Y-112329010D01*
X115699218Y-112795958D01*
X116056163Y-113153526D01*
X116522773Y-113347279D01*
X117028010Y-113347720D01*
X117494958Y-113154782D01*
X117852526Y-112797837D01*
X118046279Y-112331227D01*
X118046720Y-111825990D01*
X117853782Y-111359042D01*
X117496837Y-111001474D01*
X117030227Y-110807721D01*
X116813429Y-110807532D01*
X117103523Y-110790406D01*
X117431197Y-110654679D01*
X117485028Y-110425633D01*
X116776500Y-109717105D01*
X116067972Y-110425633D01*
X116121803Y-110654679D01*
X116562047Y-110807312D01*
X116524990Y-110807280D01*
X116058042Y-111000218D01*
X115700474Y-111357163D01*
X115506721Y-111823773D01*
X115506280Y-112329010D01*
X111969232Y-112329010D01*
X111708359Y-112067682D01*
X110878014Y-111722893D01*
X109978930Y-111722109D01*
X109147985Y-112065448D01*
X108511682Y-112700641D01*
X108166893Y-113530986D01*
X108166109Y-114430070D01*
X105802500Y-114430070D01*
X105802500Y-109360164D01*
X115493819Y-109360164D01*
X115523594Y-109864523D01*
X115659321Y-110192197D01*
X115888367Y-110246028D01*
X116596895Y-109537500D01*
X116956105Y-109537500D01*
X117664633Y-110246028D01*
X117893679Y-110192197D01*
X118059181Y-109714836D01*
X118029406Y-109210477D01*
X117893679Y-108882803D01*
X117664633Y-108828972D01*
X116956105Y-109537500D01*
X116596895Y-109537500D01*
X115888367Y-108828972D01*
X115659321Y-108882803D01*
X115493819Y-109360164D01*
X105802500Y-109360164D01*
X105802500Y-107885633D01*
X116067972Y-107885633D01*
X116121803Y-108114679D01*
X116588261Y-108276401D01*
X116449477Y-108284594D01*
X116121803Y-108420321D01*
X116067972Y-108649367D01*
X116776500Y-109357895D01*
X117485028Y-108649367D01*
X117431197Y-108420321D01*
X116964739Y-108258599D01*
X117103523Y-108250406D01*
X117431197Y-108114679D01*
X117485028Y-107885633D01*
X116776500Y-107177105D01*
X116067972Y-107885633D01*
X105802500Y-107885633D01*
X105802500Y-106820164D01*
X115493819Y-106820164D01*
X115523594Y-107324523D01*
X115659321Y-107652197D01*
X115888367Y-107706028D01*
X116596895Y-106997500D01*
X116956105Y-106997500D01*
X117664633Y-107706028D01*
X117893679Y-107652197D01*
X118059181Y-107174836D01*
X118029406Y-106670477D01*
X117893679Y-106342803D01*
X117664633Y-106288972D01*
X116956105Y-106997500D01*
X116596895Y-106997500D01*
X115888367Y-106288972D01*
X115659321Y-106342803D01*
X115493819Y-106820164D01*
X105802500Y-106820164D01*
X105802500Y-106109367D01*
X116067972Y-106109367D01*
X116776500Y-106817895D01*
X117485028Y-106109367D01*
X117431197Y-105880321D01*
X116953836Y-105714819D01*
X116449477Y-105744594D01*
X116121803Y-105880321D01*
X116067972Y-106109367D01*
X105802500Y-106109367D01*
X105802500Y-104270070D01*
X108166109Y-104270070D01*
X108509448Y-105101015D01*
X109144641Y-105737318D01*
X109974986Y-106082107D01*
X110874070Y-106082891D01*
X111705015Y-105739552D01*
X112341318Y-105104359D01*
X112686107Y-104274014D01*
X112686891Y-103374930D01*
X112343552Y-102543985D01*
X111708359Y-101907682D01*
X110878014Y-101562893D01*
X109978930Y-101562109D01*
X109147985Y-101905448D01*
X108511682Y-102540641D01*
X108166893Y-103370986D01*
X108166109Y-104270070D01*
X105802500Y-104270070D01*
X105802500Y-99447431D01*
X105954652Y-98682511D01*
X106348330Y-98093330D01*
X106937511Y-97699652D01*
X107702431Y-97547500D01*
X129652708Y-97547500D01*
X129616460Y-97726500D01*
X129616460Y-97726500D01*
G37*
X129616460Y-97726500D02*
X129616460Y-99758500D01*
X129644872Y-99909497D01*
X124413012Y-105141358D01*
X124352590Y-105047459D01*
X124140390Y-104902469D01*
X123888500Y-104851460D01*
X123761711Y-104851460D01*
X123773941Y-104843590D01*
X123918931Y-104631390D01*
X123969940Y-104379500D01*
X123969940Y-103179500D01*
X123925662Y-102944183D01*
X123786590Y-102728059D01*
X123716789Y-102680366D01*
X123773941Y-102643590D01*
X123918931Y-102431390D01*
X123969940Y-102179500D01*
X123969940Y-100979500D01*
X123925662Y-100744183D01*
X123786590Y-100528059D01*
X123662186Y-100443057D01*
X123679520Y-100425753D01*
X123824835Y-100075795D01*
X123825165Y-99696867D01*
X123680461Y-99346657D01*
X123412753Y-99078480D01*
X123062795Y-98933165D01*
X122683867Y-98932835D01*
X122333657Y-99077539D01*
X122065480Y-99345247D01*
X121920165Y-99695205D01*
X121919835Y-100074133D01*
X122064539Y-100424343D01*
X122083329Y-100443166D01*
X121971059Y-100515410D01*
X121826069Y-100727610D01*
X121775060Y-100979500D01*
X121775060Y-102179500D01*
X121819338Y-102414817D01*
X121958410Y-102630941D01*
X122028211Y-102678634D01*
X121971059Y-102715410D01*
X121826069Y-102927610D01*
X121775060Y-103179500D01*
X121775060Y-104379500D01*
X121819338Y-104614817D01*
X121958410Y-104830941D01*
X121988441Y-104851460D01*
X121856500Y-104851460D01*
X121621183Y-104895738D01*
X121405059Y-105034810D01*
X121260069Y-105247010D01*
X121209060Y-105498900D01*
X121209060Y-107226100D01*
X121253338Y-107461417D01*
X121392410Y-107677541D01*
X121604610Y-107822531D01*
X121645939Y-107830900D01*
X121628085Y-107842830D01*
X121429188Y-108140500D01*
X120586611Y-108140500D01*
X120586720Y-108015990D01*
X120393782Y-107549042D01*
X120036837Y-107191474D01*
X119570227Y-106997721D01*
X119568012Y-106997719D01*
X120034958Y-106804782D01*
X120392526Y-106447837D01*
X120586279Y-105981227D01*
X120586720Y-105475990D01*
X120393782Y-105009042D01*
X120036837Y-104651474D01*
X119570227Y-104457721D01*
X119064990Y-104457280D01*
X118598042Y-104650218D01*
X118240474Y-105007163D01*
X118046721Y-105473773D01*
X118046280Y-105979010D01*
X118239218Y-106445958D01*
X118596163Y-106803526D01*
X119062773Y-106997279D01*
X119064988Y-106997281D01*
X118598042Y-107190218D01*
X118240474Y-107547163D01*
X118046721Y-108013773D01*
X118046280Y-108519010D01*
X118239218Y-108985958D01*
X118596163Y-109343526D01*
X119062773Y-109537279D01*
X119064988Y-109537281D01*
X118598042Y-109730218D01*
X118240474Y-110087163D01*
X118046721Y-110553773D01*
X118046280Y-111059010D01*
X118239218Y-111525958D01*
X118596163Y-111883526D01*
X119062773Y-112077279D01*
X119568010Y-112077720D01*
X120034958Y-111884782D01*
X120392526Y-111527837D01*
X120586279Y-111061227D01*
X120586720Y-110555990D01*
X120393782Y-110089042D01*
X120036837Y-109731474D01*
X119805704Y-109635499D01*
X119951500Y-109664500D01*
X121429188Y-109664500D01*
X121628085Y-109962170D01*
X121942866Y-110172500D01*
X121628085Y-110382830D01*
X121303229Y-110869011D01*
X121189155Y-111442500D01*
X121303229Y-112015989D01*
X121628085Y-112502170D01*
X122114266Y-112827026D01*
X122687755Y-112941100D01*
X123057245Y-112941100D01*
X123630734Y-112827026D01*
X124116915Y-112502170D01*
X124315812Y-112204500D01*
X125477870Y-112204500D01*
X127794684Y-114521315D01*
X128041895Y-114686496D01*
X128333500Y-114744500D01*
X131935060Y-114744500D01*
X131935060Y-115682500D01*
X131979338Y-115917817D01*
X132118410Y-116133941D01*
X132330610Y-116278931D01*
X132582500Y-116329940D01*
X133482500Y-116329940D01*
X133717817Y-116285662D01*
X133933941Y-116146590D01*
X134078931Y-115934390D01*
X134097134Y-115844500D01*
X134268306Y-115844500D01*
X134313247Y-115889520D01*
X134663205Y-116034835D01*
X135042133Y-116035165D01*
X135392343Y-115890461D01*
X135438385Y-115844500D01*
X137266500Y-115844500D01*
X137558105Y-115786496D01*
X137805315Y-115621315D01*
X138651316Y-114775315D01*
X138750334Y-114627123D01*
X138816496Y-114528105D01*
X138874500Y-114236500D01*
X138874500Y-110958057D01*
X138938941Y-110916590D01*
X138978125Y-110859242D01*
X139103410Y-111053941D01*
X139315610Y-111198931D01*
X139567500Y-111249940D01*
X140467500Y-111249940D01*
X140702817Y-111205662D01*
X140918941Y-111066590D01*
X140969209Y-110993021D01*
X141008410Y-111053941D01*
X141160500Y-111157860D01*
X141160500Y-114667306D01*
X141115480Y-114712247D01*
X140970165Y-115062205D01*
X140969835Y-115441133D01*
X141114539Y-115791343D01*
X141382247Y-116059520D01*
X141732205Y-116204835D01*
X142111133Y-116205165D01*
X142461343Y-116060461D01*
X142729520Y-115792753D01*
X142874835Y-115442795D01*
X142875165Y-115063867D01*
X142730461Y-114713657D01*
X142684500Y-114667615D01*
X142684500Y-113105250D01*
X153235500Y-113105250D01*
X153235500Y-113695809D01*
X153332173Y-113929198D01*
X153510801Y-114107827D01*
X153744190Y-114204500D01*
X154209750Y-114204500D01*
X154368500Y-114045750D01*
X154368500Y-112946500D01*
X154622500Y-112946500D01*
X154622500Y-114045750D01*
X154781250Y-114204500D01*
X155246810Y-114204500D01*
X155480199Y-114107827D01*
X155658827Y-113929198D01*
X155755500Y-113695809D01*
X155755500Y-113105250D01*
X155596750Y-112946500D01*
X154622500Y-112946500D01*
X154368500Y-112946500D01*
X153394250Y-112946500D01*
X153235500Y-113105250D01*
X142684500Y-113105250D01*
X142684500Y-111156318D01*
X142823941Y-111066590D01*
X142968931Y-110854390D01*
X142987371Y-110763332D01*
X143273105Y-110706496D01*
X143282079Y-110700500D01*
X153223060Y-110700500D01*
X153223060Y-111069500D01*
X153267338Y-111304817D01*
X153406410Y-111520941D01*
X153474506Y-111567469D01*
X153332173Y-111709802D01*
X153235500Y-111943191D01*
X153235500Y-112533750D01*
X153394250Y-112692500D01*
X154368500Y-112692500D01*
X154368500Y-112672500D01*
X154622500Y-112672500D01*
X154622500Y-112692500D01*
X155596750Y-112692500D01*
X155755500Y-112533750D01*
X155755500Y-111943191D01*
X155658827Y-111709802D01*
X155517590Y-111568564D01*
X155571941Y-111533590D01*
X155716931Y-111321390D01*
X155767940Y-111069500D01*
X155767940Y-110980570D01*
X155843173Y-111162198D01*
X156021801Y-111340827D01*
X156255190Y-111437500D01*
X156495750Y-111437500D01*
X156654500Y-111278750D01*
X156654500Y-110949940D01*
X156908500Y-110949940D01*
X156908500Y-111278750D01*
X157067250Y-111437500D01*
X157307810Y-111437500D01*
X157541199Y-111340827D01*
X157719827Y-111162198D01*
X157816500Y-110928809D01*
X157816500Y-110886250D01*
X157658879Y-110728629D01*
X157777931Y-110554390D01*
X157802580Y-110432670D01*
X157816500Y-110418750D01*
X157816500Y-110376191D01*
X157814832Y-110372165D01*
X157828940Y-110302500D01*
X157828940Y-110002500D01*
X157809433Y-109898829D01*
X157828940Y-109802500D01*
X157828940Y-109502500D01*
X157809433Y-109398829D01*
X157828940Y-109302500D01*
X157828940Y-109002500D01*
X157809433Y-108898829D01*
X157828940Y-108802500D01*
X157828940Y-108502500D01*
X157812382Y-108414500D01*
X158898870Y-108414500D01*
X159321500Y-108837131D01*
X159321500Y-110905060D01*
X158881500Y-110905060D01*
X158646183Y-110949338D01*
X158430059Y-111088410D01*
X158285069Y-111300610D01*
X158234060Y-111552500D01*
X158234060Y-111852500D01*
X158278338Y-112087817D01*
X158417410Y-112303941D01*
X158629610Y-112448931D01*
X158881500Y-112499940D01*
X159321500Y-112499940D01*
X159321500Y-115190870D01*
X158624870Y-115887500D01*
X150050500Y-115887500D01*
X149758895Y-115945504D01*
X149511685Y-116110685D01*
X148915232Y-116707138D01*
X148812753Y-116604480D01*
X148462795Y-116459165D01*
X148083867Y-116458835D01*
X147733657Y-116603539D01*
X147687615Y-116649500D01*
X147256500Y-116649500D01*
X146964895Y-116707504D01*
X146719837Y-116871247D01*
X146717685Y-116872685D01*
X146172409Y-117417961D01*
X145794011Y-117493229D01*
X145307830Y-117818085D01*
X145097500Y-118132866D01*
X144887170Y-117818085D01*
X144400989Y-117493229D01*
X143827500Y-117379155D01*
X143254011Y-117493229D01*
X142767830Y-117818085D01*
X142557500Y-118132866D01*
X142347170Y-117818085D01*
X141860989Y-117493229D01*
X141287500Y-117379155D01*
X140714011Y-117493229D01*
X140227830Y-117818085D01*
X140017500Y-118132866D01*
X139807170Y-117818085D01*
X139320989Y-117493229D01*
X138747500Y-117379155D01*
X138174011Y-117493229D01*
X137687830Y-117818085D01*
X137477500Y-118132866D01*
X137267170Y-117818085D01*
X136780989Y-117493229D01*
X136207500Y-117379155D01*
X135634011Y-117493229D01*
X135147830Y-117818085D01*
X134937500Y-118132866D01*
X134727170Y-117818085D01*
X134240989Y-117493229D01*
X133667500Y-117379155D01*
X133094011Y-117493229D01*
X132607830Y-117818085D01*
X132397500Y-118132866D01*
X132187170Y-117818085D01*
X131700989Y-117493229D01*
X131127500Y-117379155D01*
X130554011Y-117493229D01*
X130067830Y-117818085D01*
X129861039Y-118127569D01*
X129489536Y-117711768D01*
X128962291Y-117457791D01*
X128946526Y-117455142D01*
X128714500Y-117576283D01*
X128714500Y-118935500D01*
X128734500Y-118935500D01*
X128734500Y-119189500D01*
X128714500Y-119189500D01*
X128714500Y-119209500D01*
X128460500Y-119209500D01*
X128460500Y-119189500D01*
X128440500Y-119189500D01*
X128440500Y-118935500D01*
X128460500Y-118935500D01*
X128460500Y-117576283D01*
X128228474Y-117455142D01*
X128212709Y-117457791D01*
X127685464Y-117711768D01*
X127313961Y-118127569D01*
X127107170Y-117818085D01*
X126620989Y-117493229D01*
X126047500Y-117379155D01*
X125474011Y-117493229D01*
X124987830Y-117818085D01*
X124777500Y-118132866D01*
X124567170Y-117818085D01*
X124080989Y-117493229D01*
X123507500Y-117379155D01*
X122934011Y-117493229D01*
X122447830Y-117818085D01*
X122438257Y-117832413D01*
X122434262Y-117811183D01*
X122295190Y-117595059D01*
X122082990Y-117450069D01*
X121831100Y-117399060D01*
X120103900Y-117399060D01*
X119868583Y-117443338D01*
X119652459Y-117582410D01*
X119507469Y-117794610D01*
X119456460Y-118046500D01*
X119456460Y-120078500D01*
X119490141Y-120257500D01*
X107702431Y-120257500D01*
X106937511Y-120105348D01*
X106348330Y-119711670D01*
X105954652Y-119122489D01*
X105802500Y-118357569D01*
X105802500Y-114430070D01*
X108166109Y-114430070D01*
X108509448Y-115261015D01*
X109144641Y-115897318D01*
X109974986Y-116242107D01*
X110874070Y-116242891D01*
X111705015Y-115899552D01*
X112341318Y-115264359D01*
X112686107Y-114434014D01*
X112686891Y-113534930D01*
X112343552Y-112703985D01*
X111969232Y-112329010D01*
X115506280Y-112329010D01*
X115699218Y-112795958D01*
X116056163Y-113153526D01*
X116522773Y-113347279D01*
X117028010Y-113347720D01*
X117494958Y-113154782D01*
X117852526Y-112797837D01*
X118046279Y-112331227D01*
X118046720Y-111825990D01*
X117853782Y-111359042D01*
X117496837Y-111001474D01*
X117030227Y-110807721D01*
X116813429Y-110807532D01*
X117103523Y-110790406D01*
X117431197Y-110654679D01*
X117485028Y-110425633D01*
X116776500Y-109717105D01*
X116067972Y-110425633D01*
X116121803Y-110654679D01*
X116562047Y-110807312D01*
X116524990Y-110807280D01*
X116058042Y-111000218D01*
X115700474Y-111357163D01*
X115506721Y-111823773D01*
X115506280Y-112329010D01*
X111969232Y-112329010D01*
X111708359Y-112067682D01*
X110878014Y-111722893D01*
X109978930Y-111722109D01*
X109147985Y-112065448D01*
X108511682Y-112700641D01*
X108166893Y-113530986D01*
X108166109Y-114430070D01*
X105802500Y-114430070D01*
X105802500Y-109360164D01*
X115493819Y-109360164D01*
X115523594Y-109864523D01*
X115659321Y-110192197D01*
X115888367Y-110246028D01*
X116596895Y-109537500D01*
X116956105Y-109537500D01*
X117664633Y-110246028D01*
X117893679Y-110192197D01*
X118059181Y-109714836D01*
X118029406Y-109210477D01*
X117893679Y-108882803D01*
X117664633Y-108828972D01*
X116956105Y-109537500D01*
X116596895Y-109537500D01*
X115888367Y-108828972D01*
X115659321Y-108882803D01*
X115493819Y-109360164D01*
X105802500Y-109360164D01*
X105802500Y-107885633D01*
X116067972Y-107885633D01*
X116121803Y-108114679D01*
X116588261Y-108276401D01*
X116449477Y-108284594D01*
X116121803Y-108420321D01*
X116067972Y-108649367D01*
X116776500Y-109357895D01*
X117485028Y-108649367D01*
X117431197Y-108420321D01*
X116964739Y-108258599D01*
X117103523Y-108250406D01*
X117431197Y-108114679D01*
X117485028Y-107885633D01*
X116776500Y-107177105D01*
X116067972Y-107885633D01*
X105802500Y-107885633D01*
X105802500Y-106820164D01*
X115493819Y-106820164D01*
X115523594Y-107324523D01*
X115659321Y-107652197D01*
X115888367Y-107706028D01*
X116596895Y-106997500D01*
X116956105Y-106997500D01*
X117664633Y-107706028D01*
X117893679Y-107652197D01*
X118059181Y-107174836D01*
X118029406Y-106670477D01*
X117893679Y-106342803D01*
X117664633Y-106288972D01*
X116956105Y-106997500D01*
X116596895Y-106997500D01*
X115888367Y-106288972D01*
X115659321Y-106342803D01*
X115493819Y-106820164D01*
X105802500Y-106820164D01*
X105802500Y-106109367D01*
X116067972Y-106109367D01*
X116776500Y-106817895D01*
X117485028Y-106109367D01*
X117431197Y-105880321D01*
X116953836Y-105714819D01*
X116449477Y-105744594D01*
X116121803Y-105880321D01*
X116067972Y-106109367D01*
X105802500Y-106109367D01*
X105802500Y-104270070D01*
X108166109Y-104270070D01*
X108509448Y-105101015D01*
X109144641Y-105737318D01*
X109974986Y-106082107D01*
X110874070Y-106082891D01*
X111705015Y-105739552D01*
X112341318Y-105104359D01*
X112686107Y-104274014D01*
X112686891Y-103374930D01*
X112343552Y-102543985D01*
X111708359Y-101907682D01*
X110878014Y-101562893D01*
X109978930Y-101562109D01*
X109147985Y-101905448D01*
X108511682Y-102540641D01*
X108166893Y-103370986D01*
X108166109Y-104270070D01*
X105802500Y-104270070D01*
X105802500Y-99447431D01*
X105954652Y-98682511D01*
X106348330Y-98093330D01*
X106937511Y-97699652D01*
X107702431Y-97547500D01*
X129652708Y-97547500D01*
X129616460Y-97726500D01*
G36*
X139255500Y-104011131D02*
X139255500Y-106648682D01*
X139116059Y-106738410D01*
X138976170Y-106943145D01*
X138847199Y-106814173D01*
X138613810Y-106717500D01*
X138398250Y-106717500D01*
X138239500Y-106876250D01*
X138239500Y-107825500D01*
X138259500Y-107825500D01*
X138259500Y-108079500D01*
X138239500Y-108079500D01*
X138239500Y-108099500D01*
X137985500Y-108099500D01*
X137985500Y-108079500D01*
X137261250Y-108079500D01*
X137102500Y-108238250D01*
X137102500Y-108678809D01*
X137199173Y-108912198D01*
X137200543Y-108913568D01*
X137141069Y-109000610D01*
X137090060Y-109252500D01*
X137090060Y-110452500D01*
X137134338Y-110687817D01*
X137273410Y-110903941D01*
X137350500Y-110956614D01*
X137350500Y-113920869D01*
X136950870Y-114320500D01*
X136264500Y-114320500D01*
X136264500Y-110446688D01*
X136402817Y-110420662D01*
X136618941Y-110281590D01*
X136763931Y-110069390D01*
X136814940Y-109817500D01*
X136814940Y-109257500D01*
X136776901Y-109055341D01*
X136814940Y-108867500D01*
X136814940Y-108307500D01*
X136776936Y-108105527D01*
X136802500Y-108043810D01*
X136802500Y-107923250D01*
X136643750Y-107764500D01*
X136497589Y-107764500D01*
X136419390Y-107711069D01*
X136167500Y-107660060D01*
X135355500Y-107660060D01*
X135355500Y-107510500D01*
X135375500Y-107510500D01*
X135375500Y-106881250D01*
X135629500Y-106881250D01*
X135629500Y-107510500D01*
X136643750Y-107510500D01*
X136802500Y-107351750D01*
X136802500Y-107231190D01*
X136800430Y-107226191D01*
X137102500Y-107226191D01*
X137102500Y-107666750D01*
X137261250Y-107825500D01*
X137985500Y-107825500D01*
X137985500Y-106876250D01*
X137826750Y-106717500D01*
X137611190Y-106717500D01*
X137377801Y-106814173D01*
X137199173Y-106992802D01*
X137102500Y-107226191D01*
X136800430Y-107226191D01*
X136705827Y-106997801D01*
X136527198Y-106819173D01*
X136293809Y-106722500D01*
X135788250Y-106722500D01*
X135629500Y-106881250D01*
X135375500Y-106881250D01*
X135216750Y-106722500D01*
X134711191Y-106722500D01*
X134477802Y-106819173D01*
X134299173Y-106997801D01*
X134295825Y-107005883D01*
X134231590Y-106906059D01*
X134019390Y-106761069D01*
X133767500Y-106710060D01*
X132437500Y-106710060D01*
X132270500Y-106741483D01*
X132270500Y-104138130D01*
X132459131Y-103949500D01*
X139193870Y-103949500D01*
X139255500Y-104011131D01*
X139255500Y-104011131D01*
G37*
X139255500Y-104011131D02*
X139255500Y-106648682D01*
X139116059Y-106738410D01*
X138976170Y-106943145D01*
X138847199Y-106814173D01*
X138613810Y-106717500D01*
X138398250Y-106717500D01*
X138239500Y-106876250D01*
X138239500Y-107825500D01*
X138259500Y-107825500D01*
X138259500Y-108079500D01*
X138239500Y-108079500D01*
X138239500Y-108099500D01*
X137985500Y-108099500D01*
X137985500Y-108079500D01*
X137261250Y-108079500D01*
X137102500Y-108238250D01*
X137102500Y-108678809D01*
X137199173Y-108912198D01*
X137200543Y-108913568D01*
X137141069Y-109000610D01*
X137090060Y-109252500D01*
X137090060Y-110452500D01*
X137134338Y-110687817D01*
X137273410Y-110903941D01*
X137350500Y-110956614D01*
X137350500Y-113920869D01*
X136950870Y-114320500D01*
X136264500Y-114320500D01*
X136264500Y-110446688D01*
X136402817Y-110420662D01*
X136618941Y-110281590D01*
X136763931Y-110069390D01*
X136814940Y-109817500D01*
X136814940Y-109257500D01*
X136776901Y-109055341D01*
X136814940Y-108867500D01*
X136814940Y-108307500D01*
X136776936Y-108105527D01*
X136802500Y-108043810D01*
X136802500Y-107923250D01*
X136643750Y-107764500D01*
X136497589Y-107764500D01*
X136419390Y-107711069D01*
X136167500Y-107660060D01*
X135355500Y-107660060D01*
X135355500Y-107510500D01*
X135375500Y-107510500D01*
X135375500Y-106881250D01*
X135629500Y-106881250D01*
X135629500Y-107510500D01*
X136643750Y-107510500D01*
X136802500Y-107351750D01*
X136802500Y-107231190D01*
X136800430Y-107226191D01*
X137102500Y-107226191D01*
X137102500Y-107666750D01*
X137261250Y-107825500D01*
X137985500Y-107825500D01*
X137985500Y-106876250D01*
X137826750Y-106717500D01*
X137611190Y-106717500D01*
X137377801Y-106814173D01*
X137199173Y-106992802D01*
X137102500Y-107226191D01*
X136800430Y-107226191D01*
X136705827Y-106997801D01*
X136527198Y-106819173D01*
X136293809Y-106722500D01*
X135788250Y-106722500D01*
X135629500Y-106881250D01*
X135375500Y-106881250D01*
X135216750Y-106722500D01*
X134711191Y-106722500D01*
X134477802Y-106819173D01*
X134299173Y-106997801D01*
X134295825Y-107005883D01*
X134231590Y-106906059D01*
X134019390Y-106761069D01*
X133767500Y-106710060D01*
X132437500Y-106710060D01*
X132270500Y-106741483D01*
X132270500Y-104138130D01*
X132459131Y-103949500D01*
X139193870Y-103949500D01*
X139255500Y-104011131D01*
M02*
