G04 #@! TF.FileFunction,Legend,Bot*
%FSLAX46Y46*%
G04 Gerber Fmt 4.6, Leading zero omitted, Abs format (unit mm)*
G04 Created by KiCad (PCBNEW 4.0.4-stable) date 11/28/16 12:13:09*
%MOMM*%
%LPD*%
G01*
G04 APERTURE LIST*
%ADD10C,0.150000*%
G04 APERTURE END LIST*
D10*
X138712500Y-109252500D02*
X138712500Y-108552500D01*
X137512500Y-108552500D02*
X137512500Y-109252500D01*
X153645500Y-112069500D02*
X153645500Y-111069500D01*
X155345500Y-111069500D02*
X155345500Y-112069500D01*
X159031500Y-106352500D02*
X159031500Y-111452500D01*
X157031500Y-111902500D02*
X158781500Y-111902500D01*
X157031500Y-105902500D02*
X158781500Y-105902500D01*
X157031500Y-111902500D02*
X157031500Y-110902500D01*
X157031500Y-105902500D02*
X157031500Y-106902500D01*
X122237500Y-117792500D02*
X160337500Y-117792500D01*
X160337500Y-117792500D02*
X160337500Y-120332500D01*
X160337500Y-120332500D02*
X122237500Y-120332500D01*
X119417500Y-120612500D02*
X120967500Y-120612500D01*
X122237500Y-120332500D02*
X122237500Y-117792500D01*
X120967500Y-117512500D02*
X119417500Y-117512500D01*
X119417500Y-117512500D02*
X119417500Y-120612500D01*
X132397500Y-100012500D02*
X160337500Y-100012500D01*
X160337500Y-100012500D02*
X160337500Y-97472500D01*
X160337500Y-97472500D02*
X132397500Y-97472500D01*
X129577500Y-100292500D02*
X131127500Y-100292500D01*
X132397500Y-100012500D02*
X132397500Y-97472500D01*
X131127500Y-97192500D02*
X129577500Y-97192500D01*
X129577500Y-97192500D02*
X129577500Y-100292500D01*
X139342500Y-108402500D02*
X139342500Y-109402500D01*
X140692500Y-109402500D02*
X140692500Y-108402500D01*
X141247500Y-108402500D02*
X141247500Y-109402500D01*
X142597500Y-109402500D02*
X142597500Y-108402500D01*
X132357500Y-113482500D02*
X132357500Y-114482500D01*
X133707500Y-114482500D02*
X133707500Y-113482500D01*
X123547500Y-103179500D02*
X123547500Y-102179500D01*
X122197500Y-102179500D02*
X122197500Y-103179500D01*
X127785500Y-107894500D02*
X127785500Y-108894500D01*
X129135500Y-108894500D02*
X129135500Y-107894500D01*
X132243921Y-110137500D02*
G75*
G03X132243921Y-110137500I-141421J0D01*
G01*
X138469643Y-111783834D02*
X138517262Y-111736215D01*
X138564881Y-111593358D01*
X138564881Y-111498120D01*
X138517262Y-111355262D01*
X138422024Y-111260024D01*
X138326786Y-111212405D01*
X138136310Y-111164786D01*
X137993452Y-111164786D01*
X137802976Y-111212405D01*
X137707738Y-111260024D01*
X137612500Y-111355262D01*
X137564881Y-111498120D01*
X137564881Y-111593358D01*
X137612500Y-111736215D01*
X137660119Y-111783834D01*
X138564881Y-112736215D02*
X138564881Y-112164786D01*
X138564881Y-112450500D02*
X137564881Y-112450500D01*
X137707738Y-112355262D01*
X137802976Y-112260024D01*
X137850595Y-112164786D01*
X152752643Y-111402834D02*
X152800262Y-111355215D01*
X152847881Y-111212358D01*
X152847881Y-111117120D01*
X152800262Y-110974262D01*
X152705024Y-110879024D01*
X152609786Y-110831405D01*
X152419310Y-110783786D01*
X152276452Y-110783786D01*
X152085976Y-110831405D01*
X151990738Y-110879024D01*
X151895500Y-110974262D01*
X151847881Y-111117120D01*
X151847881Y-111212358D01*
X151895500Y-111355215D01*
X151943119Y-111402834D01*
X151943119Y-111783786D02*
X151895500Y-111831405D01*
X151847881Y-111926643D01*
X151847881Y-112164739D01*
X151895500Y-112259977D01*
X151943119Y-112307596D01*
X152038357Y-112355215D01*
X152133595Y-112355215D01*
X152276452Y-112307596D01*
X152847881Y-111736167D01*
X152847881Y-112355215D01*
X158408643Y-113292024D02*
X158456262Y-113244405D01*
X158503881Y-113101548D01*
X158503881Y-113006310D01*
X158456262Y-112863452D01*
X158361024Y-112768214D01*
X158265786Y-112720595D01*
X158075310Y-112672976D01*
X157932452Y-112672976D01*
X157741976Y-112720595D01*
X157646738Y-112768214D01*
X157551500Y-112863452D01*
X157503881Y-113006310D01*
X157503881Y-113101548D01*
X157551500Y-113244405D01*
X157599119Y-113292024D01*
X158503881Y-113720595D02*
X157503881Y-113720595D01*
X158503881Y-114292024D01*
X157503881Y-114292024D01*
X158503881Y-115292024D02*
X158503881Y-114720595D01*
X158503881Y-115006309D02*
X157503881Y-115006309D01*
X157646738Y-114911071D01*
X157741976Y-114815833D01*
X157789595Y-114720595D01*
X118554405Y-119641881D02*
X118554405Y-118641881D01*
X118554405Y-119118071D02*
X117982976Y-119118071D01*
X117982976Y-119641881D02*
X117982976Y-118641881D01*
X116982976Y-119641881D02*
X117554405Y-119641881D01*
X117268691Y-119641881D02*
X117268691Y-118641881D01*
X117363929Y-118784738D01*
X117459167Y-118879976D01*
X117554405Y-118927595D01*
X128714405Y-99321881D02*
X128714405Y-98321881D01*
X128714405Y-98798071D02*
X128142976Y-98798071D01*
X128142976Y-99321881D02*
X128142976Y-98321881D01*
X127762024Y-98321881D02*
X127142976Y-98321881D01*
X127476310Y-98702833D01*
X127333452Y-98702833D01*
X127238214Y-98750452D01*
X127190595Y-98798071D01*
X127142976Y-98893310D01*
X127142976Y-99131405D01*
X127190595Y-99226643D01*
X127238214Y-99274262D01*
X127333452Y-99321881D01*
X127619167Y-99321881D01*
X127714405Y-99274262D01*
X127762024Y-99226643D01*
X140469881Y-111783834D02*
X139993690Y-111450500D01*
X140469881Y-111212405D02*
X139469881Y-111212405D01*
X139469881Y-111593358D01*
X139517500Y-111688596D01*
X139565119Y-111736215D01*
X139660357Y-111783834D01*
X139803214Y-111783834D01*
X139898452Y-111736215D01*
X139946071Y-111688596D01*
X139993690Y-111593358D01*
X139993690Y-111212405D01*
X140469881Y-112736215D02*
X140469881Y-112164786D01*
X140469881Y-112450500D02*
X139469881Y-112450500D01*
X139612738Y-112355262D01*
X139707976Y-112260024D01*
X139755595Y-112164786D01*
X142374881Y-111783834D02*
X141898690Y-111450500D01*
X142374881Y-111212405D02*
X141374881Y-111212405D01*
X141374881Y-111593358D01*
X141422500Y-111688596D01*
X141470119Y-111736215D01*
X141565357Y-111783834D01*
X141708214Y-111783834D01*
X141803452Y-111736215D01*
X141851071Y-111688596D01*
X141898690Y-111593358D01*
X141898690Y-111212405D01*
X141470119Y-112164786D02*
X141422500Y-112212405D01*
X141374881Y-112307643D01*
X141374881Y-112545739D01*
X141422500Y-112640977D01*
X141470119Y-112688596D01*
X141565357Y-112736215D01*
X141660595Y-112736215D01*
X141803452Y-112688596D01*
X142374881Y-112117167D01*
X142374881Y-112736215D01*
X131960881Y-113815834D02*
X131484690Y-113482500D01*
X131960881Y-113244405D02*
X130960881Y-113244405D01*
X130960881Y-113625358D01*
X131008500Y-113720596D01*
X131056119Y-113768215D01*
X131151357Y-113815834D01*
X131294214Y-113815834D01*
X131389452Y-113768215D01*
X131437071Y-113720596D01*
X131484690Y-113625358D01*
X131484690Y-113244405D01*
X130960881Y-114149167D02*
X130960881Y-114768215D01*
X131341833Y-114434881D01*
X131341833Y-114577739D01*
X131389452Y-114672977D01*
X131437071Y-114720596D01*
X131532310Y-114768215D01*
X131770405Y-114768215D01*
X131865643Y-114720596D01*
X131913262Y-114672977D01*
X131960881Y-114577739D01*
X131960881Y-114292024D01*
X131913262Y-114196786D01*
X131865643Y-114149167D01*
X121424881Y-102512834D02*
X120948690Y-102179500D01*
X121424881Y-101941405D02*
X120424881Y-101941405D01*
X120424881Y-102322358D01*
X120472500Y-102417596D01*
X120520119Y-102465215D01*
X120615357Y-102512834D01*
X120758214Y-102512834D01*
X120853452Y-102465215D01*
X120901071Y-102417596D01*
X120948690Y-102322358D01*
X120948690Y-101941405D01*
X120758214Y-103369977D02*
X121424881Y-103369977D01*
X120377262Y-103131881D02*
X121091548Y-102893786D01*
X121091548Y-103512834D01*
X127134881Y-108227834D02*
X126658690Y-107894500D01*
X127134881Y-107656405D02*
X126134881Y-107656405D01*
X126134881Y-108037358D01*
X126182500Y-108132596D01*
X126230119Y-108180215D01*
X126325357Y-108227834D01*
X126468214Y-108227834D01*
X126563452Y-108180215D01*
X126611071Y-108132596D01*
X126658690Y-108037358D01*
X126658690Y-107656405D01*
X126134881Y-109132596D02*
X126134881Y-108656405D01*
X126611071Y-108608786D01*
X126563452Y-108656405D01*
X126515833Y-108751643D01*
X126515833Y-108989739D01*
X126563452Y-109084977D01*
X126611071Y-109132596D01*
X126706310Y-109180215D01*
X126944405Y-109180215D01*
X127039643Y-109132596D01*
X127087262Y-109084977D01*
X127134881Y-108989739D01*
X127134881Y-108751643D01*
X127087262Y-108656405D01*
X127039643Y-108608786D01*
X134264405Y-110089881D02*
X134264405Y-110899405D01*
X134216786Y-110994643D01*
X134169167Y-111042262D01*
X134073929Y-111089881D01*
X133883452Y-111089881D01*
X133788214Y-111042262D01*
X133740595Y-110994643D01*
X133692976Y-110899405D01*
X133692976Y-110089881D01*
X132692976Y-111089881D02*
X133264405Y-111089881D01*
X132978691Y-111089881D02*
X132978691Y-110089881D01*
X133073929Y-110232738D01*
X133169167Y-110327976D01*
X133264405Y-110375595D01*
M02*
