G04 #@! TF.FileFunction,Soldermask,Bot*
%FSLAX46Y46*%
G04 Gerber Fmt 4.6, Leading zero omitted, Abs format (unit mm)*
G04 Created by KiCad (PCBNEW 4.0.4-stable) date 11/28/16 12:13:09*
%MOMM*%
%LPD*%
G01*
G04 APERTURE LIST*
%ADD10C,0.150000*%
%ADD11R,1.150000X1.600000*%
%ADD12R,1.650000X1.900000*%
%ADD13R,1.200000X0.700000*%
%ADD14R,2.127200X2.432000*%
%ADD15O,2.127200X2.432000*%
%ADD16R,2.432000X2.127200*%
%ADD17O,2.432000X2.127200*%
%ADD18R,1.300000X1.600000*%
%ADD19R,1.730000X0.960000*%
%ADD20C,1.670000*%
%ADD21C,3.650000*%
G04 APERTURE END LIST*
D10*
D11*
X138112500Y-109852500D03*
X138112500Y-107952500D03*
D12*
X154495500Y-110319500D03*
X154495500Y-112819500D03*
D13*
X156781500Y-107152500D03*
X156781500Y-107652500D03*
X156781500Y-108152500D03*
X156781500Y-108652500D03*
X156781500Y-109152500D03*
X156781500Y-109652500D03*
X156781500Y-110152500D03*
X156781500Y-110652500D03*
X159281500Y-106102500D03*
X159281500Y-111702500D03*
D14*
X120967500Y-119062500D03*
D15*
X123507500Y-119062500D03*
X126047500Y-119062500D03*
X128587500Y-119062500D03*
X131127500Y-119062500D03*
X133667500Y-119062500D03*
X136207500Y-119062500D03*
X138747500Y-119062500D03*
X141287500Y-119062500D03*
X143827500Y-119062500D03*
X146367500Y-119062500D03*
X148907500Y-119062500D03*
X151447500Y-119062500D03*
X153987500Y-119062500D03*
X156527500Y-119062500D03*
X159067500Y-119062500D03*
D14*
X131127500Y-98742500D03*
D15*
X133667500Y-98742500D03*
X136207500Y-98742500D03*
X138747500Y-98742500D03*
X141287500Y-98742500D03*
X143827500Y-98742500D03*
X146367500Y-98742500D03*
X148907500Y-98742500D03*
X151447500Y-98742500D03*
X153987500Y-98742500D03*
X156527500Y-98742500D03*
X159067500Y-98742500D03*
D16*
X122872500Y-106362500D03*
D17*
X122872500Y-108902500D03*
X122872500Y-111442500D03*
D18*
X140017500Y-110002500D03*
X140017500Y-107802500D03*
X141922500Y-110002500D03*
X141922500Y-107802500D03*
X133032500Y-115082500D03*
X133032500Y-112882500D03*
X122872500Y-101579500D03*
X122872500Y-103779500D03*
X128460500Y-109494500D03*
X128460500Y-107294500D03*
D19*
X133102500Y-109537500D03*
X133102500Y-108587500D03*
X133102500Y-107637500D03*
X135502500Y-107637500D03*
X135502500Y-108587500D03*
X135502500Y-109537500D03*
D20*
X119316500Y-105727500D03*
X116776500Y-106997500D03*
X119316500Y-108267500D03*
X116776500Y-109537500D03*
X119316500Y-110807500D03*
X116776500Y-112077500D03*
D21*
X110426500Y-103822500D03*
X110426500Y-113982500D03*
M02*
