M48
;DRILL file {KiCad 4.0.4-stable} date 11/28/16 12:13:11
;FORMAT={2:4/ absolute / inch / suppress leading zeros}
FMAT,2
INCH,TZ
T1C0.015
T2C0.035
T3C0.040
T4C0.128
%
G90
G05
M72
T1
X42525Y-46575
X48375Y-39325
X49725Y-39975
X53092Y-45308
X53825Y-43875
X54825Y-40275
X55875Y-45375
X56225Y-40025
X56675Y-40525
X58375Y-46225
X59175Y-46225
X59825Y-39925
X60275Y-40225
X60675Y-40475
X60825Y-45375
T2
X45975Y-42125
X45975Y-43125
X45975Y-44125
X46975Y-41625
X46975Y-42625
X46975Y-43625
T3
X47625Y-46875
X48375Y-41875
X48375Y-42875
X48375Y-43875
X48625Y-46875
X49625Y-46875
X50625Y-46875
X51625Y-38875
X51625Y-46875
X52625Y-38875
X52625Y-46875
X53625Y-38875
X53625Y-46875
X54625Y-38875
X54625Y-46875
X55625Y-38875
X55625Y-46875
X56625Y-38875
X56625Y-46875
X57625Y-38875
X57625Y-46875
X58625Y-38875
X58625Y-46875
X59625Y-38875
X59625Y-46875
X60625Y-38875
X60625Y-46875
X61625Y-38875
X61625Y-46875
X62625Y-38875
X62625Y-46875
T4
X43475Y-40875
X43475Y-44875
T0
M30
