G04 #@! TF.FileFunction,Copper,L1,Top,Signal*
%FSLAX46Y46*%
G04 Gerber Fmt 4.6, Leading zero omitted, Abs format (unit mm)*
G04 Created by KiCad (PCBNEW 4.0.4-stable) date 11/28/16 12:13:09*
%MOMM*%
%LPD*%
G01*
G04 APERTURE LIST*
%ADD10C,0.150000*%
%ADD11R,0.750000X1.200000*%
%ADD12R,1.727200X2.032000*%
%ADD13O,1.727200X2.032000*%
%ADD14R,2.032000X1.727200*%
%ADD15O,2.032000X1.727200*%
%ADD16R,1.200000X0.900000*%
%ADD17R,0.900000X1.200000*%
%ADD18R,0.800000X1.700000*%
%ADD19R,1.700000X0.800000*%
%ADD20C,1.270000*%
%ADD21C,0.635000*%
%ADD22C,0.254000*%
G04 APERTURE END LIST*
D10*
D11*
X119316500Y-98173500D03*
X119316500Y-100073500D03*
D12*
X120967500Y-119062500D03*
D13*
X123507500Y-119062500D03*
X126047500Y-119062500D03*
X128587500Y-119062500D03*
X131127500Y-119062500D03*
X133667500Y-119062500D03*
X136207500Y-119062500D03*
X138747500Y-119062500D03*
X141287500Y-119062500D03*
X143827500Y-119062500D03*
X146367500Y-119062500D03*
X148907500Y-119062500D03*
X151447500Y-119062500D03*
X153987500Y-119062500D03*
X156527500Y-119062500D03*
X159067500Y-119062500D03*
D12*
X131127500Y-98742500D03*
D13*
X133667500Y-98742500D03*
X136207500Y-98742500D03*
X138747500Y-98742500D03*
X141287500Y-98742500D03*
X143827500Y-98742500D03*
X146367500Y-98742500D03*
X148907500Y-98742500D03*
X151447500Y-98742500D03*
X153987500Y-98742500D03*
X156527500Y-98742500D03*
X159067500Y-98742500D03*
D14*
X122872500Y-106362500D03*
D15*
X122872500Y-108902500D03*
X122872500Y-111442500D03*
D16*
X124312500Y-116141500D03*
X126512500Y-116141500D03*
D17*
X133286500Y-114955500D03*
X133286500Y-112755500D03*
D16*
X126090500Y-106616500D03*
X128290500Y-106616500D03*
D17*
X133286500Y-103103500D03*
X133286500Y-105303500D03*
D18*
X136637500Y-108902500D03*
X133237500Y-108902500D03*
D19*
X131000500Y-115301500D03*
X131000500Y-111901500D03*
D18*
X125490500Y-108902500D03*
X128890500Y-108902500D03*
D19*
X131000500Y-102503500D03*
X131000500Y-105903500D03*
D18*
X113777500Y-119062500D03*
X110377500Y-119062500D03*
D20*
X119316500Y-105727500D03*
X116776500Y-106997500D03*
X119316500Y-108267500D03*
X116776500Y-109537500D03*
X119316500Y-110807500D03*
X116776500Y-112077500D03*
D21*
X134853500Y-115082500D03*
X122872500Y-99885500D03*
X143954500Y-102933500D03*
X141922500Y-115252500D03*
X154495500Y-115252500D03*
X136715500Y-111442500D03*
X126301500Y-101536500D03*
X108013500Y-118300500D03*
X150304500Y-117411500D03*
X148272500Y-117411500D03*
X154114500Y-102806500D03*
X153098500Y-102171500D03*
X151955500Y-101409500D03*
X142811500Y-101663500D03*
X139255500Y-102298500D03*
D22*
X134853500Y-115082500D02*
X134810500Y-115125500D01*
X133286500Y-105303500D02*
X132989500Y-105303500D01*
X132989500Y-105303500D02*
X132016500Y-104330500D01*
X132016500Y-104330500D02*
X129349500Y-104330500D01*
X129349500Y-104330500D02*
X128290500Y-105389500D01*
X128290500Y-105389500D02*
X128290500Y-106616500D01*
X159067500Y-119062500D02*
X159067500Y-116649500D01*
X159067500Y-116649500D02*
X157670500Y-115252500D01*
X157670500Y-115252500D02*
X154495500Y-115252500D01*
X133286500Y-112755500D02*
X135402500Y-112755500D01*
X135402500Y-112755500D02*
X136715500Y-111442500D01*
X136637500Y-108902500D02*
X136637500Y-111364500D01*
X136637500Y-111364500D02*
X136715500Y-111442500D01*
X133286500Y-105303500D02*
X135275500Y-105303500D01*
X135275500Y-105303500D02*
X136637500Y-106665500D01*
X136637500Y-106665500D02*
X136637500Y-108902500D01*
X128290500Y-106616500D02*
X128290500Y-103525500D01*
X128290500Y-103525500D02*
X126301500Y-101536500D01*
X110377500Y-119062500D02*
X108775500Y-119062500D01*
X108775500Y-119062500D02*
X108013500Y-118300500D01*
X148272500Y-117411500D02*
X150304500Y-117411500D01*
X143827500Y-98742500D02*
X143827500Y-100774500D01*
X143827500Y-100774500D02*
X145986500Y-102933500D01*
X145986500Y-102933500D02*
X153987500Y-102933500D01*
X153987500Y-102933500D02*
X154114500Y-102806500D01*
X146367500Y-98742500D02*
X146367500Y-100799900D01*
X146367500Y-100799900D02*
X147739100Y-102171500D01*
X147739100Y-102171500D02*
X153098500Y-102171500D01*
X148907500Y-98742500D02*
X148907500Y-100774500D01*
X148907500Y-100774500D02*
X149542500Y-101409500D01*
X149542500Y-101409500D02*
X151955500Y-101409500D01*
X119316500Y-105727500D02*
X119316500Y-100073500D01*
X120967500Y-119062500D02*
X113777500Y-119062500D01*
X126512500Y-116141500D02*
X129476500Y-116141500D01*
X133667500Y-117538500D02*
X133667500Y-119062500D01*
X133032500Y-116903500D02*
X133667500Y-117538500D01*
X130238500Y-116903500D02*
X133032500Y-116903500D01*
X129476500Y-116141500D02*
X130238500Y-116903500D01*
X131000500Y-111901500D02*
X127620500Y-111901500D01*
X127620500Y-111901500D02*
X126512500Y-113009500D01*
X126512500Y-113009500D02*
X126512500Y-116141500D01*
X131000500Y-111901500D02*
X131000500Y-108267500D01*
X133237500Y-108902500D02*
X131635500Y-108902500D01*
X131635500Y-108902500D02*
X131000500Y-108267500D01*
X128890500Y-108902500D02*
X130365500Y-108902500D01*
X130365500Y-108902500D02*
X131000500Y-108267500D01*
X131000500Y-108267500D02*
X131000500Y-105903500D01*
X142811500Y-101663500D02*
X142176500Y-102298500D01*
X142176500Y-102298500D02*
X139255500Y-102298500D01*
X133286500Y-114955500D02*
X131346500Y-114955500D01*
X131346500Y-114955500D02*
X131000500Y-115301500D01*
X125490500Y-108902500D02*
X125490500Y-107216500D01*
X125490500Y-107216500D02*
X126090500Y-106616500D01*
X131000500Y-102503500D02*
X132686500Y-102503500D01*
X132686500Y-102503500D02*
X133286500Y-103103500D01*
G36*
X118306500Y-97887750D02*
X118465250Y-98046500D01*
X119189500Y-98046500D01*
X119189500Y-98026500D01*
X119443500Y-98026500D01*
X119443500Y-98046500D01*
X120167750Y-98046500D01*
X120326500Y-97887750D01*
X120326500Y-97547500D01*
X129652708Y-97547500D01*
X129616460Y-97726500D01*
X129616460Y-99758500D01*
X129660738Y-99993817D01*
X129799810Y-100209941D01*
X130012010Y-100354931D01*
X130263900Y-100405940D01*
X131991100Y-100405940D01*
X132226417Y-100361662D01*
X132442541Y-100222590D01*
X132587531Y-100010390D01*
X132595900Y-99969061D01*
X132607830Y-99986915D01*
X133094011Y-100311771D01*
X133667500Y-100425845D01*
X134240989Y-100311771D01*
X134727170Y-99986915D01*
X134937500Y-99672134D01*
X135147830Y-99986915D01*
X135634011Y-100311771D01*
X136207500Y-100425845D01*
X136780989Y-100311771D01*
X137267170Y-99986915D01*
X137477500Y-99672134D01*
X137687830Y-99986915D01*
X138174011Y-100311771D01*
X138747500Y-100425845D01*
X139320989Y-100311771D01*
X139807170Y-99986915D01*
X140017500Y-99672134D01*
X140227830Y-99986915D01*
X140714011Y-100311771D01*
X141287500Y-100425845D01*
X141860989Y-100311771D01*
X142347170Y-99986915D01*
X142557500Y-99672134D01*
X142767830Y-99986915D01*
X143065500Y-100185812D01*
X143065500Y-100737618D01*
X143001795Y-100711165D01*
X142622867Y-100710835D01*
X142272657Y-100855539D01*
X142004480Y-101123247D01*
X141859165Y-101473205D01*
X141859110Y-101536500D01*
X139840694Y-101536500D01*
X139795753Y-101491480D01*
X139445795Y-101346165D01*
X139066867Y-101345835D01*
X138716657Y-101490539D01*
X138448480Y-101758247D01*
X138303165Y-102108205D01*
X138302835Y-102487133D01*
X138447539Y-102837343D01*
X138715247Y-103105520D01*
X139065205Y-103250835D01*
X139444133Y-103251165D01*
X139794343Y-103106461D01*
X139840385Y-103060500D01*
X142176500Y-103060500D01*
X142468105Y-103002496D01*
X142715315Y-102837315D01*
X142936521Y-102616110D01*
X143000133Y-102616165D01*
X143350343Y-102471461D01*
X143618520Y-102203753D01*
X143763835Y-101853795D01*
X143763892Y-101788522D01*
X145307670Y-103332300D01*
X138112500Y-103332300D01*
X138066341Y-103340985D01*
X138023947Y-103368265D01*
X137995506Y-103409890D01*
X137985500Y-103459300D01*
X137985500Y-114459300D01*
X137994185Y-114505459D01*
X138021465Y-114547853D01*
X138063090Y-114576294D01*
X138112500Y-114586300D01*
X153814648Y-114586300D01*
X153688480Y-114712247D01*
X153543165Y-115062205D01*
X153542835Y-115441133D01*
X153687539Y-115791343D01*
X153955247Y-116059520D01*
X154305205Y-116204835D01*
X154684133Y-116205165D01*
X155034343Y-116060461D01*
X155080385Y-116014500D01*
X157354870Y-116014500D01*
X158305500Y-116965131D01*
X158305500Y-117619188D01*
X158007830Y-117818085D01*
X157797500Y-118132866D01*
X157587170Y-117818085D01*
X157100989Y-117493229D01*
X156527500Y-117379155D01*
X155954011Y-117493229D01*
X155467830Y-117818085D01*
X155257500Y-118132866D01*
X155047170Y-117818085D01*
X154560989Y-117493229D01*
X153987500Y-117379155D01*
X153414011Y-117493229D01*
X152927830Y-117818085D01*
X152717500Y-118132866D01*
X152507170Y-117818085D01*
X152020989Y-117493229D01*
X151447500Y-117379155D01*
X151256996Y-117417049D01*
X151257165Y-117222867D01*
X151112461Y-116872657D01*
X150844753Y-116604480D01*
X150494795Y-116459165D01*
X150115867Y-116458835D01*
X149765657Y-116603539D01*
X149719615Y-116649500D01*
X148857694Y-116649500D01*
X148812753Y-116604480D01*
X148462795Y-116459165D01*
X148083867Y-116458835D01*
X147733657Y-116603539D01*
X147465480Y-116871247D01*
X147320165Y-117221205D01*
X147319835Y-117600133D01*
X147403301Y-117802136D01*
X146940989Y-117493229D01*
X146367500Y-117379155D01*
X145794011Y-117493229D01*
X145307830Y-117818085D01*
X145097500Y-118132866D01*
X144887170Y-117818085D01*
X144400989Y-117493229D01*
X143827500Y-117379155D01*
X143254011Y-117493229D01*
X142767830Y-117818085D01*
X142557500Y-118132866D01*
X142347170Y-117818085D01*
X141860989Y-117493229D01*
X141287500Y-117379155D01*
X140714011Y-117493229D01*
X140227830Y-117818085D01*
X140017500Y-118132866D01*
X139807170Y-117818085D01*
X139320989Y-117493229D01*
X138747500Y-117379155D01*
X138174011Y-117493229D01*
X137687830Y-117818085D01*
X137477500Y-118132866D01*
X137267170Y-117818085D01*
X136780989Y-117493229D01*
X136207500Y-117379155D01*
X135634011Y-117493229D01*
X135147830Y-117818085D01*
X134937500Y-118132866D01*
X134727170Y-117818085D01*
X134429500Y-117619188D01*
X134429500Y-117538500D01*
X134371496Y-117246895D01*
X134305334Y-117147877D01*
X134206316Y-116999685D01*
X133571315Y-116364685D01*
X133547751Y-116348940D01*
X133329247Y-116202940D01*
X133736500Y-116202940D01*
X133971817Y-116158662D01*
X134187941Y-116019590D01*
X134332931Y-115807390D01*
X134383940Y-115555500D01*
X134383940Y-114355500D01*
X134339662Y-114120183D01*
X134200590Y-113904059D01*
X134130789Y-113856366D01*
X134187941Y-113819590D01*
X134332931Y-113607390D01*
X134351134Y-113517500D01*
X135402500Y-113517500D01*
X135694105Y-113459496D01*
X135941315Y-113294315D01*
X136840521Y-112395110D01*
X136904133Y-112395165D01*
X137254343Y-112250461D01*
X137522520Y-111982753D01*
X137667835Y-111632795D01*
X137668165Y-111253867D01*
X137523461Y-110903657D01*
X137399500Y-110779479D01*
X137399500Y-110274144D01*
X137488941Y-110216590D01*
X137633931Y-110004390D01*
X137684940Y-109752500D01*
X137684940Y-108052500D01*
X137640662Y-107817183D01*
X137501590Y-107601059D01*
X137399500Y-107531304D01*
X137399500Y-106665500D01*
X137341496Y-106373895D01*
X137176315Y-106126685D01*
X135814315Y-104764685D01*
X135722745Y-104703500D01*
X135567105Y-104599504D01*
X135275500Y-104541500D01*
X134353458Y-104541500D01*
X134339662Y-104468183D01*
X134200590Y-104252059D01*
X134130789Y-104204366D01*
X134187941Y-104167590D01*
X134332931Y-103955390D01*
X134383940Y-103703500D01*
X134383940Y-102503500D01*
X134339662Y-102268183D01*
X134200590Y-102052059D01*
X133988390Y-101907069D01*
X133736500Y-101856060D01*
X133062747Y-101856060D01*
X132978105Y-101799504D01*
X132686500Y-101741500D01*
X132372144Y-101741500D01*
X132314590Y-101652059D01*
X132102390Y-101507069D01*
X131850500Y-101456060D01*
X130150500Y-101456060D01*
X129915183Y-101500338D01*
X129699059Y-101639410D01*
X129554069Y-101851610D01*
X129503060Y-102103500D01*
X129503060Y-102903500D01*
X129547338Y-103138817D01*
X129686410Y-103354941D01*
X129898610Y-103499931D01*
X130150500Y-103550940D01*
X131850500Y-103550940D01*
X132085817Y-103506662D01*
X132189060Y-103440227D01*
X132189060Y-103602824D01*
X132016500Y-103568500D01*
X129349500Y-103568500D01*
X129057895Y-103626504D01*
X129052500Y-103630109D01*
X129052500Y-103525500D01*
X128994496Y-103233895D01*
X128878637Y-103060500D01*
X128829316Y-102986685D01*
X127254110Y-101411479D01*
X127254165Y-101347867D01*
X127109461Y-100997657D01*
X126841753Y-100729480D01*
X126491795Y-100584165D01*
X126112867Y-100583835D01*
X125762657Y-100728539D01*
X125494480Y-100996247D01*
X125349165Y-101346205D01*
X125348835Y-101725133D01*
X125493539Y-102075343D01*
X125761247Y-102343520D01*
X126111205Y-102488835D01*
X126176261Y-102488892D01*
X127528500Y-103841131D01*
X127528500Y-105549542D01*
X127455183Y-105563338D01*
X127239059Y-105702410D01*
X127191366Y-105772211D01*
X127154590Y-105715059D01*
X126942390Y-105570069D01*
X126690500Y-105519060D01*
X125490500Y-105519060D01*
X125255183Y-105563338D01*
X125039059Y-105702410D01*
X124894069Y-105914610D01*
X124843060Y-106166500D01*
X124843060Y-106840253D01*
X124786504Y-106924895D01*
X124728500Y-107216500D01*
X124728500Y-107530856D01*
X124639059Y-107588410D01*
X124494069Y-107800610D01*
X124443060Y-108052500D01*
X124443060Y-108335491D01*
X124441771Y-108329011D01*
X124116915Y-107842830D01*
X124102587Y-107833257D01*
X124123817Y-107829262D01*
X124339941Y-107690190D01*
X124484931Y-107477990D01*
X124535940Y-107226100D01*
X124535940Y-105498900D01*
X124491662Y-105263583D01*
X124352590Y-105047459D01*
X124140390Y-104902469D01*
X123888500Y-104851460D01*
X121856500Y-104851460D01*
X121621183Y-104895738D01*
X121405059Y-105034810D01*
X121260069Y-105247010D01*
X121209060Y-105498900D01*
X121209060Y-107226100D01*
X121253338Y-107461417D01*
X121392410Y-107677541D01*
X121604610Y-107822531D01*
X121645939Y-107830900D01*
X121628085Y-107842830D01*
X121303229Y-108329011D01*
X121189155Y-108902500D01*
X121303229Y-109475989D01*
X121628085Y-109962170D01*
X121942866Y-110172500D01*
X121628085Y-110382830D01*
X121303229Y-110869011D01*
X121189155Y-111442500D01*
X121303229Y-112015989D01*
X121628085Y-112502170D01*
X122114266Y-112827026D01*
X122687755Y-112941100D01*
X123057245Y-112941100D01*
X123630734Y-112827026D01*
X124116915Y-112502170D01*
X124441771Y-112015989D01*
X124555845Y-111442500D01*
X124441771Y-110869011D01*
X124116915Y-110382830D01*
X123802134Y-110172500D01*
X124116915Y-109962170D01*
X124441771Y-109475989D01*
X124443060Y-109469509D01*
X124443060Y-109752500D01*
X124487338Y-109987817D01*
X124626410Y-110203941D01*
X124838610Y-110348931D01*
X125090500Y-110399940D01*
X125890500Y-110399940D01*
X126125817Y-110355662D01*
X126341941Y-110216590D01*
X126486931Y-110004390D01*
X126537940Y-109752500D01*
X126537940Y-108052500D01*
X126493662Y-107817183D01*
X126427227Y-107713940D01*
X126690500Y-107713940D01*
X126925817Y-107669662D01*
X127141941Y-107530590D01*
X127189634Y-107460789D01*
X127226410Y-107517941D01*
X127438610Y-107662931D01*
X127690500Y-107713940D01*
X127953288Y-107713940D01*
X127894069Y-107800610D01*
X127843060Y-108052500D01*
X127843060Y-109752500D01*
X127887338Y-109987817D01*
X128026410Y-110203941D01*
X128238610Y-110348931D01*
X128490500Y-110399940D01*
X129290500Y-110399940D01*
X129525817Y-110355662D01*
X129741941Y-110216590D01*
X129886931Y-110004390D01*
X129937940Y-109752500D01*
X129937940Y-109664500D01*
X130238500Y-109664500D01*
X130238500Y-110854060D01*
X130150500Y-110854060D01*
X129915183Y-110898338D01*
X129699059Y-111037410D01*
X129629304Y-111139500D01*
X127620500Y-111139500D01*
X127328895Y-111197504D01*
X127244542Y-111253867D01*
X127081685Y-111362684D01*
X125973685Y-112470685D01*
X125808504Y-112717895D01*
X125750500Y-113009500D01*
X125750500Y-115074542D01*
X125677183Y-115088338D01*
X125461059Y-115227410D01*
X125414531Y-115295506D01*
X125272198Y-115153173D01*
X125038809Y-115056500D01*
X124598250Y-115056500D01*
X124439500Y-115215250D01*
X124439500Y-116014500D01*
X124459500Y-116014500D01*
X124459500Y-116268500D01*
X124439500Y-116268500D01*
X124439500Y-117067750D01*
X124598250Y-117226500D01*
X125038809Y-117226500D01*
X125272198Y-117129827D01*
X125413436Y-116988590D01*
X125448410Y-117042941D01*
X125660610Y-117187931D01*
X125912500Y-117238940D01*
X127112500Y-117238940D01*
X127347817Y-117194662D01*
X127563941Y-117055590D01*
X127667860Y-116903500D01*
X129160870Y-116903500D01*
X129699685Y-117442316D01*
X129843637Y-117538501D01*
X129946895Y-117607496D01*
X130238500Y-117665500D01*
X130296189Y-117665500D01*
X130067830Y-117818085D01*
X129857500Y-118132866D01*
X129647170Y-117818085D01*
X129160989Y-117493229D01*
X128587500Y-117379155D01*
X128014011Y-117493229D01*
X127527830Y-117818085D01*
X127317500Y-118132866D01*
X127107170Y-117818085D01*
X126620989Y-117493229D01*
X126047500Y-117379155D01*
X125474011Y-117493229D01*
X124987830Y-117818085D01*
X124781039Y-118127569D01*
X124409536Y-117711768D01*
X123882291Y-117457791D01*
X123866526Y-117455142D01*
X123634500Y-117576283D01*
X123634500Y-118935500D01*
X123654500Y-118935500D01*
X123654500Y-119189500D01*
X123634500Y-119189500D01*
X123634500Y-119209500D01*
X123380500Y-119209500D01*
X123380500Y-119189500D01*
X123360500Y-119189500D01*
X123360500Y-118935500D01*
X123380500Y-118935500D01*
X123380500Y-117576283D01*
X123148474Y-117455142D01*
X123132709Y-117457791D01*
X122605464Y-117711768D01*
X122448593Y-117887345D01*
X122434262Y-117811183D01*
X122295190Y-117595059D01*
X122082990Y-117450069D01*
X121831100Y-117399060D01*
X120103900Y-117399060D01*
X119868583Y-117443338D01*
X119652459Y-117582410D01*
X119507469Y-117794610D01*
X119456460Y-118046500D01*
X119456460Y-118300500D01*
X114824940Y-118300500D01*
X114824940Y-118212500D01*
X114780662Y-117977183D01*
X114641590Y-117761059D01*
X114429390Y-117616069D01*
X114177500Y-117565060D01*
X113377500Y-117565060D01*
X113142183Y-117609338D01*
X112926059Y-117748410D01*
X112781069Y-117960610D01*
X112730060Y-118212500D01*
X112730060Y-119912500D01*
X112774338Y-120147817D01*
X112844917Y-120257500D01*
X111310312Y-120257500D01*
X111373931Y-120164390D01*
X111424940Y-119912500D01*
X111424940Y-118212500D01*
X111380662Y-117977183D01*
X111241590Y-117761059D01*
X111029390Y-117616069D01*
X110777500Y-117565060D01*
X109977500Y-117565060D01*
X109742183Y-117609338D01*
X109526059Y-117748410D01*
X109381069Y-117960610D01*
X109330060Y-118212500D01*
X109330060Y-118300500D01*
X109091131Y-118300500D01*
X108966110Y-118175479D01*
X108966165Y-118111867D01*
X108821461Y-117761657D01*
X108553753Y-117493480D01*
X108203795Y-117348165D01*
X107824867Y-117347835D01*
X107474657Y-117492539D01*
X107206480Y-117760247D01*
X107061165Y-118110205D01*
X107060835Y-118489133D01*
X107205539Y-118839343D01*
X107473247Y-119107520D01*
X107823205Y-119252835D01*
X107888261Y-119252892D01*
X108236685Y-119601316D01*
X108384877Y-119700334D01*
X108483895Y-119766496D01*
X108775500Y-119824500D01*
X109330060Y-119824500D01*
X109330060Y-119912500D01*
X109374338Y-120147817D01*
X109444917Y-120257500D01*
X107702431Y-120257500D01*
X106937511Y-120105348D01*
X106348330Y-119711670D01*
X105954652Y-119122489D01*
X105802500Y-118357569D01*
X105802500Y-116427250D01*
X123077500Y-116427250D01*
X123077500Y-116717810D01*
X123174173Y-116951199D01*
X123352802Y-117129827D01*
X123586191Y-117226500D01*
X124026750Y-117226500D01*
X124185500Y-117067750D01*
X124185500Y-116268500D01*
X123236250Y-116268500D01*
X123077500Y-116427250D01*
X105802500Y-116427250D01*
X105802500Y-114430070D01*
X108166109Y-114430070D01*
X108509448Y-115261015D01*
X109144641Y-115897318D01*
X109974986Y-116242107D01*
X110874070Y-116242891D01*
X111705015Y-115899552D01*
X112039961Y-115565190D01*
X123077500Y-115565190D01*
X123077500Y-115855750D01*
X123236250Y-116014500D01*
X124185500Y-116014500D01*
X124185500Y-115215250D01*
X124026750Y-115056500D01*
X123586191Y-115056500D01*
X123352802Y-115153173D01*
X123174173Y-115331801D01*
X123077500Y-115565190D01*
X112039961Y-115565190D01*
X112341318Y-115264359D01*
X112686107Y-114434014D01*
X112686891Y-113534930D01*
X112343552Y-112703985D01*
X111708359Y-112067682D01*
X110878014Y-111722893D01*
X109978930Y-111722109D01*
X109147985Y-112065448D01*
X108511682Y-112700641D01*
X108166893Y-113530986D01*
X108166109Y-114430070D01*
X105802500Y-114430070D01*
X105802500Y-107249010D01*
X115506280Y-107249010D01*
X115699218Y-107715958D01*
X116056163Y-108073526D01*
X116522773Y-108267279D01*
X116524988Y-108267281D01*
X116058042Y-108460218D01*
X115700474Y-108817163D01*
X115506721Y-109283773D01*
X115506280Y-109789010D01*
X115699218Y-110255958D01*
X116056163Y-110613526D01*
X116522773Y-110807279D01*
X116524988Y-110807281D01*
X116058042Y-111000218D01*
X115700474Y-111357163D01*
X115506721Y-111823773D01*
X115506280Y-112329010D01*
X115699218Y-112795958D01*
X116056163Y-113153526D01*
X116522773Y-113347279D01*
X117028010Y-113347720D01*
X117494958Y-113154782D01*
X117852526Y-112797837D01*
X118046279Y-112331227D01*
X118046720Y-111825990D01*
X117853782Y-111359042D01*
X117496837Y-111001474D01*
X117030227Y-110807721D01*
X117028012Y-110807719D01*
X117494958Y-110614782D01*
X117852526Y-110257837D01*
X118046279Y-109791227D01*
X118046720Y-109285990D01*
X117853782Y-108819042D01*
X117496837Y-108461474D01*
X117030227Y-108267721D01*
X117028012Y-108267719D01*
X117494958Y-108074782D01*
X117852526Y-107717837D01*
X118046279Y-107251227D01*
X118046720Y-106745990D01*
X117853782Y-106279042D01*
X117554273Y-105979010D01*
X118046280Y-105979010D01*
X118239218Y-106445958D01*
X118596163Y-106803526D01*
X119062773Y-106997279D01*
X119064988Y-106997281D01*
X118598042Y-107190218D01*
X118240474Y-107547163D01*
X118046721Y-108013773D01*
X118046280Y-108519010D01*
X118239218Y-108985958D01*
X118596163Y-109343526D01*
X119062773Y-109537279D01*
X119064988Y-109537281D01*
X118598042Y-109730218D01*
X118240474Y-110087163D01*
X118046721Y-110553773D01*
X118046280Y-111059010D01*
X118239218Y-111525958D01*
X118596163Y-111883526D01*
X119062773Y-112077279D01*
X119568010Y-112077720D01*
X120034958Y-111884782D01*
X120392526Y-111527837D01*
X120586279Y-111061227D01*
X120586720Y-110555990D01*
X120393782Y-110089042D01*
X120036837Y-109731474D01*
X119570227Y-109537721D01*
X119568012Y-109537719D01*
X120034958Y-109344782D01*
X120392526Y-108987837D01*
X120586279Y-108521227D01*
X120586720Y-108015990D01*
X120393782Y-107549042D01*
X120036837Y-107191474D01*
X119570227Y-106997721D01*
X119568012Y-106997719D01*
X120034958Y-106804782D01*
X120392526Y-106447837D01*
X120586279Y-105981227D01*
X120586720Y-105475990D01*
X120393782Y-105009042D01*
X120078500Y-104693210D01*
X120078500Y-101179057D01*
X120142941Y-101137590D01*
X120287931Y-100925390D01*
X120338940Y-100673500D01*
X120338940Y-99473500D01*
X120294662Y-99238183D01*
X120228171Y-99134854D01*
X120229827Y-99133198D01*
X120326500Y-98899809D01*
X120326500Y-98459250D01*
X120167750Y-98300500D01*
X119443500Y-98300500D01*
X119443500Y-98320500D01*
X119189500Y-98320500D01*
X119189500Y-98300500D01*
X118465250Y-98300500D01*
X118306500Y-98459250D01*
X118306500Y-98899809D01*
X118403173Y-99133198D01*
X118404543Y-99134568D01*
X118345069Y-99221610D01*
X118294060Y-99473500D01*
X118294060Y-100673500D01*
X118338338Y-100908817D01*
X118477410Y-101124941D01*
X118554500Y-101177614D01*
X118554500Y-104693684D01*
X118240474Y-105007163D01*
X118046721Y-105473773D01*
X118046280Y-105979010D01*
X117554273Y-105979010D01*
X117496837Y-105921474D01*
X117030227Y-105727721D01*
X116524990Y-105727280D01*
X116058042Y-105920218D01*
X115700474Y-106277163D01*
X115506721Y-106743773D01*
X115506280Y-107249010D01*
X105802500Y-107249010D01*
X105802500Y-104270070D01*
X108166109Y-104270070D01*
X108509448Y-105101015D01*
X109144641Y-105737318D01*
X109974986Y-106082107D01*
X110874070Y-106082891D01*
X111705015Y-105739552D01*
X112341318Y-105104359D01*
X112686107Y-104274014D01*
X112686891Y-103374930D01*
X112343552Y-102543985D01*
X111708359Y-101907682D01*
X110878014Y-101562893D01*
X109978930Y-101562109D01*
X109147985Y-101905448D01*
X108511682Y-102540641D01*
X108166893Y-103370986D01*
X108166109Y-104270070D01*
X105802500Y-104270070D01*
X105802500Y-99447431D01*
X105954652Y-98682511D01*
X106348330Y-98093330D01*
X106937511Y-97699652D01*
X107702431Y-97547500D01*
X118306500Y-97547500D01*
X118306500Y-97887750D01*
X118306500Y-97887750D01*
G37*
X118306500Y-97887750D02*
X118465250Y-98046500D01*
X119189500Y-98046500D01*
X119189500Y-98026500D01*
X119443500Y-98026500D01*
X119443500Y-98046500D01*
X120167750Y-98046500D01*
X120326500Y-97887750D01*
X120326500Y-97547500D01*
X129652708Y-97547500D01*
X129616460Y-97726500D01*
X129616460Y-99758500D01*
X129660738Y-99993817D01*
X129799810Y-100209941D01*
X130012010Y-100354931D01*
X130263900Y-100405940D01*
X131991100Y-100405940D01*
X132226417Y-100361662D01*
X132442541Y-100222590D01*
X132587531Y-100010390D01*
X132595900Y-99969061D01*
X132607830Y-99986915D01*
X133094011Y-100311771D01*
X133667500Y-100425845D01*
X134240989Y-100311771D01*
X134727170Y-99986915D01*
X134937500Y-99672134D01*
X135147830Y-99986915D01*
X135634011Y-100311771D01*
X136207500Y-100425845D01*
X136780989Y-100311771D01*
X137267170Y-99986915D01*
X137477500Y-99672134D01*
X137687830Y-99986915D01*
X138174011Y-100311771D01*
X138747500Y-100425845D01*
X139320989Y-100311771D01*
X139807170Y-99986915D01*
X140017500Y-99672134D01*
X140227830Y-99986915D01*
X140714011Y-100311771D01*
X141287500Y-100425845D01*
X141860989Y-100311771D01*
X142347170Y-99986915D01*
X142557500Y-99672134D01*
X142767830Y-99986915D01*
X143065500Y-100185812D01*
X143065500Y-100737618D01*
X143001795Y-100711165D01*
X142622867Y-100710835D01*
X142272657Y-100855539D01*
X142004480Y-101123247D01*
X141859165Y-101473205D01*
X141859110Y-101536500D01*
X139840694Y-101536500D01*
X139795753Y-101491480D01*
X139445795Y-101346165D01*
X139066867Y-101345835D01*
X138716657Y-101490539D01*
X138448480Y-101758247D01*
X138303165Y-102108205D01*
X138302835Y-102487133D01*
X138447539Y-102837343D01*
X138715247Y-103105520D01*
X139065205Y-103250835D01*
X139444133Y-103251165D01*
X139794343Y-103106461D01*
X139840385Y-103060500D01*
X142176500Y-103060500D01*
X142468105Y-103002496D01*
X142715315Y-102837315D01*
X142936521Y-102616110D01*
X143000133Y-102616165D01*
X143350343Y-102471461D01*
X143618520Y-102203753D01*
X143763835Y-101853795D01*
X143763892Y-101788522D01*
X145307670Y-103332300D01*
X138112500Y-103332300D01*
X138066341Y-103340985D01*
X138023947Y-103368265D01*
X137995506Y-103409890D01*
X137985500Y-103459300D01*
X137985500Y-114459300D01*
X137994185Y-114505459D01*
X138021465Y-114547853D01*
X138063090Y-114576294D01*
X138112500Y-114586300D01*
X153814648Y-114586300D01*
X153688480Y-114712247D01*
X153543165Y-115062205D01*
X153542835Y-115441133D01*
X153687539Y-115791343D01*
X153955247Y-116059520D01*
X154305205Y-116204835D01*
X154684133Y-116205165D01*
X155034343Y-116060461D01*
X155080385Y-116014500D01*
X157354870Y-116014500D01*
X158305500Y-116965131D01*
X158305500Y-117619188D01*
X158007830Y-117818085D01*
X157797500Y-118132866D01*
X157587170Y-117818085D01*
X157100989Y-117493229D01*
X156527500Y-117379155D01*
X155954011Y-117493229D01*
X155467830Y-117818085D01*
X155257500Y-118132866D01*
X155047170Y-117818085D01*
X154560989Y-117493229D01*
X153987500Y-117379155D01*
X153414011Y-117493229D01*
X152927830Y-117818085D01*
X152717500Y-118132866D01*
X152507170Y-117818085D01*
X152020989Y-117493229D01*
X151447500Y-117379155D01*
X151256996Y-117417049D01*
X151257165Y-117222867D01*
X151112461Y-116872657D01*
X150844753Y-116604480D01*
X150494795Y-116459165D01*
X150115867Y-116458835D01*
X149765657Y-116603539D01*
X149719615Y-116649500D01*
X148857694Y-116649500D01*
X148812753Y-116604480D01*
X148462795Y-116459165D01*
X148083867Y-116458835D01*
X147733657Y-116603539D01*
X147465480Y-116871247D01*
X147320165Y-117221205D01*
X147319835Y-117600133D01*
X147403301Y-117802136D01*
X146940989Y-117493229D01*
X146367500Y-117379155D01*
X145794011Y-117493229D01*
X145307830Y-117818085D01*
X145097500Y-118132866D01*
X144887170Y-117818085D01*
X144400989Y-117493229D01*
X143827500Y-117379155D01*
X143254011Y-117493229D01*
X142767830Y-117818085D01*
X142557500Y-118132866D01*
X142347170Y-117818085D01*
X141860989Y-117493229D01*
X141287500Y-117379155D01*
X140714011Y-117493229D01*
X140227830Y-117818085D01*
X140017500Y-118132866D01*
X139807170Y-117818085D01*
X139320989Y-117493229D01*
X138747500Y-117379155D01*
X138174011Y-117493229D01*
X137687830Y-117818085D01*
X137477500Y-118132866D01*
X137267170Y-117818085D01*
X136780989Y-117493229D01*
X136207500Y-117379155D01*
X135634011Y-117493229D01*
X135147830Y-117818085D01*
X134937500Y-118132866D01*
X134727170Y-117818085D01*
X134429500Y-117619188D01*
X134429500Y-117538500D01*
X134371496Y-117246895D01*
X134305334Y-117147877D01*
X134206316Y-116999685D01*
X133571315Y-116364685D01*
X133547751Y-116348940D01*
X133329247Y-116202940D01*
X133736500Y-116202940D01*
X133971817Y-116158662D01*
X134187941Y-116019590D01*
X134332931Y-115807390D01*
X134383940Y-115555500D01*
X134383940Y-114355500D01*
X134339662Y-114120183D01*
X134200590Y-113904059D01*
X134130789Y-113856366D01*
X134187941Y-113819590D01*
X134332931Y-113607390D01*
X134351134Y-113517500D01*
X135402500Y-113517500D01*
X135694105Y-113459496D01*
X135941315Y-113294315D01*
X136840521Y-112395110D01*
X136904133Y-112395165D01*
X137254343Y-112250461D01*
X137522520Y-111982753D01*
X137667835Y-111632795D01*
X137668165Y-111253867D01*
X137523461Y-110903657D01*
X137399500Y-110779479D01*
X137399500Y-110274144D01*
X137488941Y-110216590D01*
X137633931Y-110004390D01*
X137684940Y-109752500D01*
X137684940Y-108052500D01*
X137640662Y-107817183D01*
X137501590Y-107601059D01*
X137399500Y-107531304D01*
X137399500Y-106665500D01*
X137341496Y-106373895D01*
X137176315Y-106126685D01*
X135814315Y-104764685D01*
X135722745Y-104703500D01*
X135567105Y-104599504D01*
X135275500Y-104541500D01*
X134353458Y-104541500D01*
X134339662Y-104468183D01*
X134200590Y-104252059D01*
X134130789Y-104204366D01*
X134187941Y-104167590D01*
X134332931Y-103955390D01*
X134383940Y-103703500D01*
X134383940Y-102503500D01*
X134339662Y-102268183D01*
X134200590Y-102052059D01*
X133988390Y-101907069D01*
X133736500Y-101856060D01*
X133062747Y-101856060D01*
X132978105Y-101799504D01*
X132686500Y-101741500D01*
X132372144Y-101741500D01*
X132314590Y-101652059D01*
X132102390Y-101507069D01*
X131850500Y-101456060D01*
X130150500Y-101456060D01*
X129915183Y-101500338D01*
X129699059Y-101639410D01*
X129554069Y-101851610D01*
X129503060Y-102103500D01*
X129503060Y-102903500D01*
X129547338Y-103138817D01*
X129686410Y-103354941D01*
X129898610Y-103499931D01*
X130150500Y-103550940D01*
X131850500Y-103550940D01*
X132085817Y-103506662D01*
X132189060Y-103440227D01*
X132189060Y-103602824D01*
X132016500Y-103568500D01*
X129349500Y-103568500D01*
X129057895Y-103626504D01*
X129052500Y-103630109D01*
X129052500Y-103525500D01*
X128994496Y-103233895D01*
X128878637Y-103060500D01*
X128829316Y-102986685D01*
X127254110Y-101411479D01*
X127254165Y-101347867D01*
X127109461Y-100997657D01*
X126841753Y-100729480D01*
X126491795Y-100584165D01*
X126112867Y-100583835D01*
X125762657Y-100728539D01*
X125494480Y-100996247D01*
X125349165Y-101346205D01*
X125348835Y-101725133D01*
X125493539Y-102075343D01*
X125761247Y-102343520D01*
X126111205Y-102488835D01*
X126176261Y-102488892D01*
X127528500Y-103841131D01*
X127528500Y-105549542D01*
X127455183Y-105563338D01*
X127239059Y-105702410D01*
X127191366Y-105772211D01*
X127154590Y-105715059D01*
X126942390Y-105570069D01*
X126690500Y-105519060D01*
X125490500Y-105519060D01*
X125255183Y-105563338D01*
X125039059Y-105702410D01*
X124894069Y-105914610D01*
X124843060Y-106166500D01*
X124843060Y-106840253D01*
X124786504Y-106924895D01*
X124728500Y-107216500D01*
X124728500Y-107530856D01*
X124639059Y-107588410D01*
X124494069Y-107800610D01*
X124443060Y-108052500D01*
X124443060Y-108335491D01*
X124441771Y-108329011D01*
X124116915Y-107842830D01*
X124102587Y-107833257D01*
X124123817Y-107829262D01*
X124339941Y-107690190D01*
X124484931Y-107477990D01*
X124535940Y-107226100D01*
X124535940Y-105498900D01*
X124491662Y-105263583D01*
X124352590Y-105047459D01*
X124140390Y-104902469D01*
X123888500Y-104851460D01*
X121856500Y-104851460D01*
X121621183Y-104895738D01*
X121405059Y-105034810D01*
X121260069Y-105247010D01*
X121209060Y-105498900D01*
X121209060Y-107226100D01*
X121253338Y-107461417D01*
X121392410Y-107677541D01*
X121604610Y-107822531D01*
X121645939Y-107830900D01*
X121628085Y-107842830D01*
X121303229Y-108329011D01*
X121189155Y-108902500D01*
X121303229Y-109475989D01*
X121628085Y-109962170D01*
X121942866Y-110172500D01*
X121628085Y-110382830D01*
X121303229Y-110869011D01*
X121189155Y-111442500D01*
X121303229Y-112015989D01*
X121628085Y-112502170D01*
X122114266Y-112827026D01*
X122687755Y-112941100D01*
X123057245Y-112941100D01*
X123630734Y-112827026D01*
X124116915Y-112502170D01*
X124441771Y-112015989D01*
X124555845Y-111442500D01*
X124441771Y-110869011D01*
X124116915Y-110382830D01*
X123802134Y-110172500D01*
X124116915Y-109962170D01*
X124441771Y-109475989D01*
X124443060Y-109469509D01*
X124443060Y-109752500D01*
X124487338Y-109987817D01*
X124626410Y-110203941D01*
X124838610Y-110348931D01*
X125090500Y-110399940D01*
X125890500Y-110399940D01*
X126125817Y-110355662D01*
X126341941Y-110216590D01*
X126486931Y-110004390D01*
X126537940Y-109752500D01*
X126537940Y-108052500D01*
X126493662Y-107817183D01*
X126427227Y-107713940D01*
X126690500Y-107713940D01*
X126925817Y-107669662D01*
X127141941Y-107530590D01*
X127189634Y-107460789D01*
X127226410Y-107517941D01*
X127438610Y-107662931D01*
X127690500Y-107713940D01*
X127953288Y-107713940D01*
X127894069Y-107800610D01*
X127843060Y-108052500D01*
X127843060Y-109752500D01*
X127887338Y-109987817D01*
X128026410Y-110203941D01*
X128238610Y-110348931D01*
X128490500Y-110399940D01*
X129290500Y-110399940D01*
X129525817Y-110355662D01*
X129741941Y-110216590D01*
X129886931Y-110004390D01*
X129937940Y-109752500D01*
X129937940Y-109664500D01*
X130238500Y-109664500D01*
X130238500Y-110854060D01*
X130150500Y-110854060D01*
X129915183Y-110898338D01*
X129699059Y-111037410D01*
X129629304Y-111139500D01*
X127620500Y-111139500D01*
X127328895Y-111197504D01*
X127244542Y-111253867D01*
X127081685Y-111362684D01*
X125973685Y-112470685D01*
X125808504Y-112717895D01*
X125750500Y-113009500D01*
X125750500Y-115074542D01*
X125677183Y-115088338D01*
X125461059Y-115227410D01*
X125414531Y-115295506D01*
X125272198Y-115153173D01*
X125038809Y-115056500D01*
X124598250Y-115056500D01*
X124439500Y-115215250D01*
X124439500Y-116014500D01*
X124459500Y-116014500D01*
X124459500Y-116268500D01*
X124439500Y-116268500D01*
X124439500Y-117067750D01*
X124598250Y-117226500D01*
X125038809Y-117226500D01*
X125272198Y-117129827D01*
X125413436Y-116988590D01*
X125448410Y-117042941D01*
X125660610Y-117187931D01*
X125912500Y-117238940D01*
X127112500Y-117238940D01*
X127347817Y-117194662D01*
X127563941Y-117055590D01*
X127667860Y-116903500D01*
X129160870Y-116903500D01*
X129699685Y-117442316D01*
X129843637Y-117538501D01*
X129946895Y-117607496D01*
X130238500Y-117665500D01*
X130296189Y-117665500D01*
X130067830Y-117818085D01*
X129857500Y-118132866D01*
X129647170Y-117818085D01*
X129160989Y-117493229D01*
X128587500Y-117379155D01*
X128014011Y-117493229D01*
X127527830Y-117818085D01*
X127317500Y-118132866D01*
X127107170Y-117818085D01*
X126620989Y-117493229D01*
X126047500Y-117379155D01*
X125474011Y-117493229D01*
X124987830Y-117818085D01*
X124781039Y-118127569D01*
X124409536Y-117711768D01*
X123882291Y-117457791D01*
X123866526Y-117455142D01*
X123634500Y-117576283D01*
X123634500Y-118935500D01*
X123654500Y-118935500D01*
X123654500Y-119189500D01*
X123634500Y-119189500D01*
X123634500Y-119209500D01*
X123380500Y-119209500D01*
X123380500Y-119189500D01*
X123360500Y-119189500D01*
X123360500Y-118935500D01*
X123380500Y-118935500D01*
X123380500Y-117576283D01*
X123148474Y-117455142D01*
X123132709Y-117457791D01*
X122605464Y-117711768D01*
X122448593Y-117887345D01*
X122434262Y-117811183D01*
X122295190Y-117595059D01*
X122082990Y-117450069D01*
X121831100Y-117399060D01*
X120103900Y-117399060D01*
X119868583Y-117443338D01*
X119652459Y-117582410D01*
X119507469Y-117794610D01*
X119456460Y-118046500D01*
X119456460Y-118300500D01*
X114824940Y-118300500D01*
X114824940Y-118212500D01*
X114780662Y-117977183D01*
X114641590Y-117761059D01*
X114429390Y-117616069D01*
X114177500Y-117565060D01*
X113377500Y-117565060D01*
X113142183Y-117609338D01*
X112926059Y-117748410D01*
X112781069Y-117960610D01*
X112730060Y-118212500D01*
X112730060Y-119912500D01*
X112774338Y-120147817D01*
X112844917Y-120257500D01*
X111310312Y-120257500D01*
X111373931Y-120164390D01*
X111424940Y-119912500D01*
X111424940Y-118212500D01*
X111380662Y-117977183D01*
X111241590Y-117761059D01*
X111029390Y-117616069D01*
X110777500Y-117565060D01*
X109977500Y-117565060D01*
X109742183Y-117609338D01*
X109526059Y-117748410D01*
X109381069Y-117960610D01*
X109330060Y-118212500D01*
X109330060Y-118300500D01*
X109091131Y-118300500D01*
X108966110Y-118175479D01*
X108966165Y-118111867D01*
X108821461Y-117761657D01*
X108553753Y-117493480D01*
X108203795Y-117348165D01*
X107824867Y-117347835D01*
X107474657Y-117492539D01*
X107206480Y-117760247D01*
X107061165Y-118110205D01*
X107060835Y-118489133D01*
X107205539Y-118839343D01*
X107473247Y-119107520D01*
X107823205Y-119252835D01*
X107888261Y-119252892D01*
X108236685Y-119601316D01*
X108384877Y-119700334D01*
X108483895Y-119766496D01*
X108775500Y-119824500D01*
X109330060Y-119824500D01*
X109330060Y-119912500D01*
X109374338Y-120147817D01*
X109444917Y-120257500D01*
X107702431Y-120257500D01*
X106937511Y-120105348D01*
X106348330Y-119711670D01*
X105954652Y-119122489D01*
X105802500Y-118357569D01*
X105802500Y-116427250D01*
X123077500Y-116427250D01*
X123077500Y-116717810D01*
X123174173Y-116951199D01*
X123352802Y-117129827D01*
X123586191Y-117226500D01*
X124026750Y-117226500D01*
X124185500Y-117067750D01*
X124185500Y-116268500D01*
X123236250Y-116268500D01*
X123077500Y-116427250D01*
X105802500Y-116427250D01*
X105802500Y-114430070D01*
X108166109Y-114430070D01*
X108509448Y-115261015D01*
X109144641Y-115897318D01*
X109974986Y-116242107D01*
X110874070Y-116242891D01*
X111705015Y-115899552D01*
X112039961Y-115565190D01*
X123077500Y-115565190D01*
X123077500Y-115855750D01*
X123236250Y-116014500D01*
X124185500Y-116014500D01*
X124185500Y-115215250D01*
X124026750Y-115056500D01*
X123586191Y-115056500D01*
X123352802Y-115153173D01*
X123174173Y-115331801D01*
X123077500Y-115565190D01*
X112039961Y-115565190D01*
X112341318Y-115264359D01*
X112686107Y-114434014D01*
X112686891Y-113534930D01*
X112343552Y-112703985D01*
X111708359Y-112067682D01*
X110878014Y-111722893D01*
X109978930Y-111722109D01*
X109147985Y-112065448D01*
X108511682Y-112700641D01*
X108166893Y-113530986D01*
X108166109Y-114430070D01*
X105802500Y-114430070D01*
X105802500Y-107249010D01*
X115506280Y-107249010D01*
X115699218Y-107715958D01*
X116056163Y-108073526D01*
X116522773Y-108267279D01*
X116524988Y-108267281D01*
X116058042Y-108460218D01*
X115700474Y-108817163D01*
X115506721Y-109283773D01*
X115506280Y-109789010D01*
X115699218Y-110255958D01*
X116056163Y-110613526D01*
X116522773Y-110807279D01*
X116524988Y-110807281D01*
X116058042Y-111000218D01*
X115700474Y-111357163D01*
X115506721Y-111823773D01*
X115506280Y-112329010D01*
X115699218Y-112795958D01*
X116056163Y-113153526D01*
X116522773Y-113347279D01*
X117028010Y-113347720D01*
X117494958Y-113154782D01*
X117852526Y-112797837D01*
X118046279Y-112331227D01*
X118046720Y-111825990D01*
X117853782Y-111359042D01*
X117496837Y-111001474D01*
X117030227Y-110807721D01*
X117028012Y-110807719D01*
X117494958Y-110614782D01*
X117852526Y-110257837D01*
X118046279Y-109791227D01*
X118046720Y-109285990D01*
X117853782Y-108819042D01*
X117496837Y-108461474D01*
X117030227Y-108267721D01*
X117028012Y-108267719D01*
X117494958Y-108074782D01*
X117852526Y-107717837D01*
X118046279Y-107251227D01*
X118046720Y-106745990D01*
X117853782Y-106279042D01*
X117554273Y-105979010D01*
X118046280Y-105979010D01*
X118239218Y-106445958D01*
X118596163Y-106803526D01*
X119062773Y-106997279D01*
X119064988Y-106997281D01*
X118598042Y-107190218D01*
X118240474Y-107547163D01*
X118046721Y-108013773D01*
X118046280Y-108519010D01*
X118239218Y-108985958D01*
X118596163Y-109343526D01*
X119062773Y-109537279D01*
X119064988Y-109537281D01*
X118598042Y-109730218D01*
X118240474Y-110087163D01*
X118046721Y-110553773D01*
X118046280Y-111059010D01*
X118239218Y-111525958D01*
X118596163Y-111883526D01*
X119062773Y-112077279D01*
X119568010Y-112077720D01*
X120034958Y-111884782D01*
X120392526Y-111527837D01*
X120586279Y-111061227D01*
X120586720Y-110555990D01*
X120393782Y-110089042D01*
X120036837Y-109731474D01*
X119570227Y-109537721D01*
X119568012Y-109537719D01*
X120034958Y-109344782D01*
X120392526Y-108987837D01*
X120586279Y-108521227D01*
X120586720Y-108015990D01*
X120393782Y-107549042D01*
X120036837Y-107191474D01*
X119570227Y-106997721D01*
X119568012Y-106997719D01*
X120034958Y-106804782D01*
X120392526Y-106447837D01*
X120586279Y-105981227D01*
X120586720Y-105475990D01*
X120393782Y-105009042D01*
X120078500Y-104693210D01*
X120078500Y-101179057D01*
X120142941Y-101137590D01*
X120287931Y-100925390D01*
X120338940Y-100673500D01*
X120338940Y-99473500D01*
X120294662Y-99238183D01*
X120228171Y-99134854D01*
X120229827Y-99133198D01*
X120326500Y-98899809D01*
X120326500Y-98459250D01*
X120167750Y-98300500D01*
X119443500Y-98300500D01*
X119443500Y-98320500D01*
X119189500Y-98320500D01*
X119189500Y-98300500D01*
X118465250Y-98300500D01*
X118306500Y-98459250D01*
X118306500Y-98899809D01*
X118403173Y-99133198D01*
X118404543Y-99134568D01*
X118345069Y-99221610D01*
X118294060Y-99473500D01*
X118294060Y-100673500D01*
X118338338Y-100908817D01*
X118477410Y-101124941D01*
X118554500Y-101177614D01*
X118554500Y-104693684D01*
X118240474Y-105007163D01*
X118046721Y-105473773D01*
X118046280Y-105979010D01*
X117554273Y-105979010D01*
X117496837Y-105921474D01*
X117030227Y-105727721D01*
X116524990Y-105727280D01*
X116058042Y-105920218D01*
X115700474Y-106277163D01*
X115506721Y-106743773D01*
X115506280Y-107249010D01*
X105802500Y-107249010D01*
X105802500Y-104270070D01*
X108166109Y-104270070D01*
X108509448Y-105101015D01*
X109144641Y-105737318D01*
X109974986Y-106082107D01*
X110874070Y-106082891D01*
X111705015Y-105739552D01*
X112341318Y-105104359D01*
X112686107Y-104274014D01*
X112686891Y-103374930D01*
X112343552Y-102543985D01*
X111708359Y-101907682D01*
X110878014Y-101562893D01*
X109978930Y-101562109D01*
X109147985Y-101905448D01*
X108511682Y-102540641D01*
X108166893Y-103370986D01*
X108166109Y-104270070D01*
X105802500Y-104270070D01*
X105802500Y-99447431D01*
X105954652Y-98682511D01*
X106348330Y-98093330D01*
X106937511Y-97699652D01*
X107702431Y-97547500D01*
X118306500Y-97547500D01*
X118306500Y-97887750D01*
M02*
